<?xml version="1.0" standalone="no"?><!DOCTYPE svg PUBLIC "-//W3C//DTD SVG 1.1//EN" "http://www.w3.org/Graphics/SVG/1.1/DTD/svg11.dtd"><svg t="1615996947171" class="icon" viewBox="0 0 1024 1024" version="1.1" xmlns="http://www.w3.org/2000/svg" p-id="10976" xmlns:xlink="http://www.w3.org/1999/xlink" width="128" height="128"><defs><style type="text/css"></style></defs><path d="M542.72 131.072c219.136 0 396.288 177.664 396.288 396.288s-177.664 396.288-396.288 396.288-396.288-177.152-396.288-396.288S323.584 131.072 542.72 131.072z" fill="#17E6A1" p-id="10977"></path><path d="M286.72 370.176c0-12.8-10.24-23.04-23.04-23.04s-23.04 10.24-23.04 23.04c0 23.04 9.216 44.032 24.576 58.88 14.848 14.848 35.84 24.064 58.88 24.064s44.032-9.216 58.88-24.064c14.848-14.848 24.576-35.84 24.576-58.88 0-12.8-10.24-23.04-23.04-23.04s-23.04 10.24-23.04 23.04c0 10.24-4.096 19.456-10.752 26.112-6.656 6.656-15.872 10.752-26.112 10.752-10.24 0-19.456-4.096-26.112-10.752-7.68-6.656-11.776-15.872-11.776-26.112z m373.76 0c0-12.8-10.24-23.04-23.04-23.04s-23.04 10.24-23.04 23.04c0 23.04 9.216 44.032 24.576 58.88 14.848 14.848 35.84 24.064 58.88 24.064s44.032-9.216 58.88-24.064 24.576-35.84 24.576-58.88c0-12.8-10.24-23.04-23.04-23.04s-23.04 10.24-23.04 23.04c0 10.24-4.096 19.456-10.752 26.112s-15.872 10.752-26.112 10.752-19.456-4.096-26.112-10.752c-7.68-6.656-11.776-15.872-11.776-26.112z m-352.768 344.064c0 12.8 10.24 23.04 23.04 23.04s23.04-10.24 23.04-23.04c0-43.008 17.408-82.432 45.568-110.592s67.584-45.568 110.592-45.568c43.008 0 82.432 17.408 110.592 45.568l1.024 1.024c27.648 28.16 44.544 66.56 44.544 109.568 0 12.8 10.24 23.04 23.04 23.04s23.04-10.24 23.04-23.04c0-55.296-22.016-105.472-57.856-141.824l-1.536-1.536c-36.864-36.352-87.552-59.392-143.36-59.392-55.808 0-107.008 22.528-143.36 59.392-35.84 36.864-58.368 87.552-58.368 143.36z" p-id="10978"></path><path d="M243.712 824.32c11.264-5.632 25.088-1.024 31.232 10.752 5.632 11.264 1.024 25.088-10.752 30.72L143.36 925.184l-1.024 0.512c-5.632 2.56-12.8 5.12-19.968 5.12h-0.512c-6.656 0-13.312-1.536-18.944-5.632-6.656-4.608-11.776-11.776-13.312-21.504-1.024-6.656 0-14.848 3.072-24.576l43.008-128c-22.016-33.792-39.424-71.168-51.712-110.592-12.8-41.984-19.968-86.016-19.968-132.096 0-123.392 50.176-235.008 131.072-315.392s192.512-130.56 316.416-130.56c123.392 0 235.008 50.176 315.904 130.56s131.072 192.512 131.072 315.904-50.176 235.008-131.072 315.392-192.512 130.56-315.904 130.56c-27.136 0-53.76-2.56-79.872-7.168-26.624-4.608-52.736-11.776-77.312-21.504-11.776-4.608-17.92-17.92-13.312-29.696 4.608-11.776 17.92-17.92 29.696-13.312 22.528 8.192 45.568 14.848 69.12 18.944 23.04 4.096 47.104 6.144 71.68 6.144 110.592 0 210.944-45.056 283.136-117.248S911.36 618.496 911.36 508.416s-45.056-210.432-117.248-283.136c-72.704-72.192-172.544-117.248-283.136-117.248-110.592 0-210.944 45.056-283.648 117.248s-117.76 172.544-117.76 283.136c0 41.472 6.144 80.896 17.92 118.272 11.776 38.4 29.184 74.24 51.712 106.496 5.12 6.656 6.656 15.36 3.072 23.552l-39.424 117.248 100.864-49.664z" fill="#333333" p-id="10979"></path></svg>