<?xml version="1.0" standalone="no"?><!DOCTYPE svg PUBLIC "-//W3C//DTD SVG 1.1//EN" "http://www.w3.org/Graphics/SVG/1.1/DTD/svg11.dtd"><svg t="1615997013367" class="icon" viewBox="0 0 1024 1024" version="1.1" xmlns="http://www.w3.org/2000/svg" p-id="16809" xmlns:xlink="http://www.w3.org/1999/xlink" width="128" height="128"><defs><style type="text/css"></style></defs><path d="M520.4 849.4c-157.2 0.1-292.5-110.8-323.2-264.9C166.4 430.3 248.9 276 394 215.8s312.6-9.5 400 121.2 70.2 304.8-40.9 415.9c-61.7 61.7-145.4 96.4-232.7 96.5z m0-624.2c-119.3-0.1-226.9 71.7-272.6 181.9-45.7 110.2-20.5 237 63.8 321.4 84.3 84.4 211.2 109.6 321.4 64C743.2 746.8 815 639.2 815 520c-0.1-162.7-132-294.6-294.6-294.8z m0 0" fill="#2A5082" p-id="16810"></path><path d="M399.1 502.6l69.4 69.4 173.4-190.7 52 52L468.5 676 347.1 554.7l52-52.1z m0 0" fill="#A3D4FF" p-id="16811"></path><path d="M468.9 701L322.5 554.7l76.6-76.6 68.7 68.6 173.5-190.5 76.9 76.7L468.9 701z m-97.3-146.3L468 651l201.8-217.3-27.3-27.3-173.4 190.7-70-70-27.5 27.6z m0 0" fill="#2A5082" p-id="16812"></path><path d="M491 1022.8c-135.6-5.5-263.4-64.6-355.4-164.4C43.6 758.6-5 626.4 0.5 490.8 0.9 480 1.8 469 3.3 455.2l34.5 4.1c-1.4 12.7-2.3 23.3-2.6 33.2-5.1 126.5 40.2 249.7 126 342.6 85.8 93 205.1 148 331.5 153l-1.7 34.7z m226.2-42.6l-13.6-31.8c121.2-53.1 214.8-154.2 258.6-279 43.8-124.8 33.7-262.2-27.8-379.4l30.7-16.1c66 125.6 76.8 273 29.9 406.9-46.9 133.9-147.3 242.3-277.2 299.4h-0.6zM108.6 256.6l-29.1-18.5C155.4 118.2 277.6 35.3 417 9c139.4-26.3 283.4 6.4 397.7 90.4l-20.6 27.9C687.6 48.9 553.2 18.4 423.3 42.9c-130 24.6-243.9 102-314.7 213.7z m0 0" fill="#BCC0C4" p-id="16813"></path><path d="M199.2 793.9C123.7 712.1 83.9 603.7 88.4 492.5c4.5-111.2 53-216 134.8-291.5 6.5-6 13.6-12 22.3-19l21.8 27.1c-8.1 6.5-14.5 12-20.4 17.5C90.6 370.7 80.8 614.2 225 770.4l-25.8 23.5z m0 0" fill="#BCC0C4" p-id="16814"></path></svg>