<svg id="图层_1" data-name="图层 1" xmlns="http://www.w3.org/2000/svg" viewBox="0 0 662.65 637.67"><defs><style>.cls-1{fill:#f3f3f3;}.cls-2{fill:#fff;}.cls-3{fill:#838383;}</style></defs><g id="图层_3" data-name="图层 3"><circle class="cls-1" cx="596.7" cy="88.6" r="19.78"/><circle class="cls-1" cx="28.58" cy="540.4" r="19.78"/><path class="cls-1" d="M218.78,685.27a13.38,13.38,0,1,1,13.38-13.38A13.39,13.39,0,0,1,218.78,685.27Zm0-20.33a7,7,0,1,0,6.95,6.95A7,7,0,0,0,218.78,664.94Z" transform="translate(-69.07 -82.87)"/><path class="cls-1" d="M597.21,112.13h-20v-20a6.62,6.62,0,0,0-13.24,0v20H544a6.62,6.62,0,0,0,0,13.24h20v20a6.62,6.62,0,0,0,13.24,0v-20h20a6.63,6.63,0,0,0,0-13.25Z" transform="translate(-69.07 -82.87)"/><path class="cls-1" d="M654.79,689.17H640V674.33a5.51,5.51,0,0,0-11,0v14.84H614.1a5.51,5.51,0,1,0,0,11h14.84V715a5.51,5.51,0,0,0,11,0V700.19H654.8a5.51,5.51,0,1,0,0-11Z" transform="translate(-69.07 -82.87)"/><path class="cls-1" d="M119.72,127.58a22.3,22.3,0,0,0,31.52,0h0a22.3,22.3,0,0,0,0-31.52l-6.66-6.66a22.3,22.3,0,0,0-31.52,0h0a22.3,22.3,0,0,0,0,31.52Z" transform="translate(-69.07 -82.87)"/><path class="cls-1" d="M234.44,119.52a10.17,10.17,0,0,0,14.38-14.38l-10-10a10.17,10.17,0,1,0-14.38,14.38Z" transform="translate(-69.07 -82.87)"/><path class="cls-1" d="M83.37,320.24a10.17,10.17,0,0,0,14.38,0h0a10.17,10.17,0,0,0,0-14.38l-10-10a10.17,10.17,0,0,0-14.38,14.38Z" transform="translate(-69.07 -82.87)"/><path class="cls-1" d="M611.34,627.71A10.17,10.17,0,0,0,597,642.09l10,10a10.17,10.17,0,1,0,14.38-14.38Z" transform="translate(-69.07 -82.87)"/><circle class="cls-1" cx="629.88" cy="553.33" r="32.77"/><path class="cls-1" d="M699.6,484.24l-31.51-31.51-20-21.27A14.24,14.24,0,0,1,648,412h0a14.23,14.23,0,0,1,20.72-.23l4,4.41L682,425.5c5.41,5.41,14.29,5.82,19.8.51a13.9,13.9,0,0,0,.19-19.84L683.4,387.54a44.46,44.46,0,0,1-12.66-25.46c-18.22-135.39-134.2-239.79-274.58-239.79q-7.19,0-14.28.37a18,18,0,0,1-13.71-5.23L349,98.29c-8.55-8.55-22.47-9.18-31.32-.94a22.29,22.29,0,0,0-.59,32.09l3.34,3.34,10.41,10.94a15.89,15.89,0,0,1-2.08,23.68c-6.51,4.83-14.68,3.26-20.19-2.69l-20.69-20.46-18-18a10.4,10.4,0,0,0-14.13-.71,10.16,10.16,0,0,0-.49,14.84l13.14,13.14,8.56,8.24c8.7,8.52,8.89,21.8.24,30.36h0a21.78,21.78,0,0,1-30.89-.26l-14.74-15.33-35.31-35.31a22.3,22.3,0,0,0-31.52,0h0a22.3,22.3,0,0,0,0,31.52l25.61,25.69,9,8.38a22,22,0,0,1,.45,30.76h0a22,22,0,0,1-32.28-.4l-5-5.44-15.36-15.44c-12.62-12.62-33.2-13.4-46.16-1.12a32.77,32.77,0,0,0-.66,47l37.34,37.33L155.49,317A16.53,16.53,0,0,1,155,341h0a16.53,16.53,0,0,1-23-.63l-5.35-5.55-8.11-8.11a10.17,10.17,0,0,0-14.38,0h0c-5.06,4.2-3.69,10.69.06,14.44l17.79,17.79L159,395a15.93,15.93,0,0,1,.08,22.73h0a15.94,15.94,0,0,1-22.34.08l-17.67-17.24-26-26c-5.41-5.41-14.29-5.82-19.8-.51a13.9,13.9,0,0,0-.19,19.84L117,437.82a25,25,0,0,1,6.84,13.05c23.49,124.93,130.8,220.27,261.3,225.36a29.58,29.58,0,0,1,19.28,8.14l20.27,19.34c8.55,8.55,22.47,9.18,31.32.94a22.29,22.29,0,0,0,.59-32.09l-2.26-2.26-9.81-10.24a14.56,14.56,0,0,1,1.23-20.92h0a14.56,14.56,0,0,1,20.13,1.13l20.22,21.22,22,22a22.3,22.3,0,0,0,32.09-.58c8.24-8.84,7.6-22.77-.94-31.32l-9.5-9.5L522.92,635a23.21,23.21,0,0,1,.7-33l.48-.45a23.21,23.21,0,0,1,32.07.2L570,615.13l5.91,5.91a10.4,10.4,0,0,0,14.13.71,10.16,10.16,0,0,0,.49-14.84l-5.15-5.15c-.94.44-20.83-20-32.63-32.32a12.33,12.33,0,0,1,.41-17.5h0a12.34,12.34,0,0,1,17.45.48l31,32.82,14.15,14.15C628.41,612,649,612.79,662,600.52a32.77,32.77,0,0,0,.66-47L640,531l-11.4-12.43a15.11,15.11,0,0,1,.56-21.1h0a15.1,15.1,0,0,1,21.67.65l2.92,3.4,14.64,14.65a22.29,22.29,0,0,0,32.09-.58C708.78,506.71,708.15,492.79,699.6,484.24Z" transform="translate(-69.07 -82.87)"/><path class="cls-2" d="M427.1,203.26H412.26V188.42a5.51,5.51,0,1,0-11,0v14.84H386.4a5.51,5.51,0,1,0,0,11h14.84v14.84a5.51,5.51,0,0,0,11,0V214.28H427.1a5.51,5.51,0,0,0,0-11Z" transform="translate(-69.07 -82.87)"/><path class="cls-2" d="M582.85,421.8a13.38,13.38,0,1,1,13.38-13.38A13.39,13.39,0,0,1,582.85,421.8Zm0-20.33a6.95,6.95,0,1,0,6.95,6.95A7,7,0,0,0,582.85,401.47Z" transform="translate(-69.07 -82.87)"/><path class="cls-2" d="M220.2,523.84a13.38,13.38,0,1,1,13.38-13.38A13.39,13.39,0,0,1,220.2,523.84Zm0-20.33a6.95,6.95,0,1,0,7,6.95A7,7,0,0,0,220.2,503.51Z" transform="translate(-69.07 -82.87)"/><path class="cls-2" d="M213.3,275.23V526.71a17.86,17.86,0,0,0,17.86,17.86H394l34.48-79.35L379.89,353.46l48.19-97.63L231,257.35A17.88,17.88,0,0,0,213.3,275.23Z" transform="translate(-69.07 -82.87)"/><path class="cls-2" d="M500,274.12l90.19,23.16a17.85,17.85,0,0,1,13,21L548,579a17.86,17.86,0,0,1-24.12,12.88l-114-45.69,47.36-65.64L428.92,368.42Z" transform="translate(-69.07 -82.87)"/><path class="cls-3" d="M394,547.57H231.16a20.89,20.89,0,0,1-20.86-20.86V275.23A20.92,20.92,0,0,1,231,254.37l197.06-1.52a3,3,0,0,1,2.57,1.41,3,3,0,0,1,.15,2.92L383.2,353.56,431.25,464a3,3,0,0,1,0,2.39l-34.48,79.35A3,3,0,0,1,394,547.57Zm29.22-288.69-192.19,1.49a14.9,14.9,0,0,0-14.75,14.86V526.71a14.88,14.88,0,0,0,14.86,14.86H392.05l33.18-76.35L377.14,354.66a3,3,0,0,1,.06-2.52Z" transform="translate(-69.07 -82.87)"/><path class="cls-3" d="M530.51,596.21a20.88,20.88,0,0,1-7.76-1.5L408.7,549a3,3,0,0,1-1.32-4.54L453.92,480,426,369.15a3,3,0,0,1,.51-2.54l71-94.31a3,3,0,0,1,3.14-1.1l90.19,23.16a20.82,20.82,0,0,1,15.22,24.53l-55.2,260.76a20.84,20.84,0,0,1-10.58,14.08A20.57,20.57,0,0,1,530.51,596.21Zm-116-51.33L525,589.15a14.87,14.87,0,0,0,20.07-10.72l55.2-260.76a14.84,14.84,0,0,0-10.84-17.48l-88.25-22.66-69,91.56,27.9,110.78a3,3,0,0,1-.48,2.49Z" transform="translate(-69.07 -82.87)"/><path class="cls-3" d="M394,547.57H231.16a20.89,20.89,0,0,1-20.86-20.86V490a3,3,0,0,1,.84-2.08l107-110.76a25.3,25.3,0,0,1,37.09.75l75.11,84.34a3.2,3.2,0,0,1,.51.8l.44,1a3,3,0,0,1,0,2.39l-34.48,79.35A3,3,0,0,1,394,547.57ZM216.3,491.18V526.7a14.88,14.88,0,0,0,14.86,14.86H392.05l33.08-76.13-74.42-83.57a19.29,19.29,0,0,0-28.29-.57Z" transform="translate(-69.07 -82.87)"/><path class="cls-3" d="M530.51,596.21a20.88,20.88,0,0,1-7.76-1.5L408.7,549a3,3,0,0,1-1.32-4.54L453.92,480l-9.49-37.68a3,3,0,0,1,1.39-3.32l17.8-10.47a12.91,12.91,0,0,1,17.5,4.4l74.23,121.89a3,3,0,0,1,.37,2.18l-4.8,22.69a20.89,20.89,0,0,1-20.41,16.55Zm-116-51.33L525,589.15a14.87,14.87,0,0,0,20.07-10.72l4.56-21.52L476,436a6.9,6.9,0,0,0-9.34-2.35L450.79,443l9.28,36.86a3,3,0,0,1-.48,2.49Z" transform="translate(-69.07 -82.87)"/><path class="cls-3" d="M516.72,399.81a36.51,36.51,0,1,1,36.51-36.51A36.55,36.55,0,0,1,516.72,399.81Zm0-67a30.51,30.51,0,1,0,30.51,30.51A30.54,30.54,0,0,0,516.72,332.79Z" transform="translate(-69.07 -82.87)"/></g></svg>