<?xml version="1.0" standalone="no"?><!DOCTYPE svg PUBLIC "-//W3C//DTD SVG 1.1//EN" "http://www.w3.org/Graphics/SVG/1.1/DTD/svg11.dtd"><svg t="1615994590620" class="icon" viewBox="0 0 1024 1024" version="1.1" xmlns="http://www.w3.org/2000/svg" p-id="7868" xmlns:xlink="http://www.w3.org/1999/xlink" width="128" height="128"><defs><style type="text/css"></style></defs><path d="M514 114.4c-220 0-398.8 178.9-398.8 398.8S294 912 514 912s398.8-178.9 398.8-398.8S734 114.4 514 114.4z m0 754.9c-196.4 0-356.1-159.8-356.1-356.1S317.6 157.1 514 157.1s356.1 159.8 356.1 356.1S710.4 869.3 514 869.3z" p-id="7869" fill="#707070"></path><path d="M782.1 455.8c-2.1-9.5-10.4-16.4-20.1-16.8-24-0.8-46.2-14.3-58.1-35.4-12.1-20.7-12.6-46.7-1.2-67.7 4.6-8.6 2.9-19.3-4.3-25.9-28-25.7-62.5-45.8-99.6-58-9.3-3.1-19.6 0.6-24.8 9-12.6 20.2-35.3 32.7-59.3 32.7S468 281.2 455.4 261c-5.2-8.3-15.4-12-24.7-9-37.4 12.1-71 31.6-99.7 58-7.2 6.6-9 17.3-4.3 25.9 11.4 21 10.9 47-1.2 67.7-12.5 21.3-34.2 34.5-58.1 35.4-9.7 0.3-18 7.2-20.1 16.8-4.3 19.6-6.4 38.5-6.4 58 0 18.8 2.1 37.7 6.3 57.8 2 9.6 10.3 16.6 20.1 16.9 24 0.8 46.2 14.3 58.1 35.4 12.1 20.7 12.6 46.7 1.2 67.7-4.6 8.6-2.9 19.3 4.3 25.9 28 25.7 62.5 45.8 99.6 58 2.2 0.7 4.4 1.1 6.7 1.1 7.2 0 14.1-3.7 18.1-10 12.6-20.2 35.3-32.7 59.3-32.7s46.7 12.5 59.3 32.7c5.2 8.3 15.4 12 24.7 9 37.4-12.1 71-31.6 99.7-58 7.2-6.6 9-17.3 4.3-25.9-11.4-21-10.9-47 1.2-67.7 12.5-21.3 34.2-34.5 58.1-35.4 9.8-0.3 18-7.2 20.1-16.8 4.3-19.6 6.4-38.5 6.4-58s-2-38.5-6.3-58z m-39 91.9c-31.6 6.1-59.3 25.7-76.2 54.5-16.6 28.4-19.7 62.9-9 93.5-17.6 14.2-37.2 25.5-58.3 33.9-21.2-24.2-52.4-38.7-85.1-38.7-32.6 0-63.8 14.5-85 38.6-21.2-8.5-41-20-58.4-33.9 10.6-30.6 7.6-65-8.9-93.2-16.1-28.4-44.3-48.4-76.2-54.6-1.8-11.7-2.7-22.9-2.7-34.1 0-11.4 0.9-22.6 2.6-34 31.6-6.1 59.3-25.7 76.2-54.5 16.6-28.4 19.7-62.9 9-93.5 17.6-14.2 37.2-25.5 58.3-33.9 21.2 24.2 52.4 38.7 85.1 38.7 32.6 0 63.8-14.5 85-38.6 21.2 8.5 41 20 58.4 33.9-10.6 30.6-7.6 65 8.9 93.2 16.2 28.5 44.4 48.5 76.3 54.8 1.8 11.4 2.6 22.6 2.6 34 0 11.3-0.8 22.6-2.6 33.9z" p-id="7870" fill="#707070"></path><path d="M514 393.6c-65.9 0-119.6 53.7-119.6 119.6S448.1 632.8 514 632.8s119.6-53.7 119.6-119.6S579.9 393.6 514 393.6z m0 196.5c-42.4 0-76.9-34.5-76.9-76.9s34.5-76.9 76.9-76.9 76.9 34.5 76.9 76.9-34.5 76.9-76.9 76.9z" p-id="7871" fill="#707070"></path></svg>