<?xml version="1.0" standalone="no"?><!DOCTYPE svg PUBLIC "-//W3C//DTD SVG 1.1//EN" "http://www.w3.org/Graphics/SVG/1.1/DTD/svg11.dtd"><svg t="1615994824696" class="icon" viewBox="0 0 1024 1024" version="1.1" xmlns="http://www.w3.org/2000/svg" p-id="1299" xmlns:xlink="http://www.w3.org/1999/xlink" width="128" height="128"><defs><style type="text/css"></style></defs><path d="M887.8 897.7c-10.2 0-20.1-4.8-27.3-13.5-3.6-4.4-6.7-9.8-9.8-17.1-0.5-1.1-5.3-10.8-35.6-21.2-26.9-9.2-65.7-16.2-115.3-20.7-102.4-9.3-252.5-8.3-446.1 3.1-89.8 5.4-167.2-63.4-172.5-153.3-0.2-3.2-0.3-6.4-0.3-9.6V334.9c0-90 73.2-163.2 163.2-163.2h531.1c43.1 0 83.8 16.7 114.6 47 30.7 30.3 48 70.7 48.6 113.9 2.5 176 2.1 310.4-1.2 399.6-1.7 46-4.2 80-7.5 103.9-1.8 13.3-3.9 23.5-6.5 31.2-5.5 16.9-15.2 26.8-28.8 29.7-2.1 0.5-4.4 0.7-6.6 0.7zM532.9 759c67 0 124.6 2.2 172.4 6.5 80.4 7.3 134.7 20.5 167.4 41.3 2-21.8 4-54.4 5.4-103 2.5-87.3 2.6-211.9 0.3-370.3-0.4-27.3-11.3-52.8-30.7-72-19.4-19.2-45.2-29.7-72.4-29.7H244.1c-56.9 0-103.2 46.3-103.2 103.2v330.5c0 2 0.1 4.1 0.2 6.1 3.3 56.8 52.3 100.3 109.1 97 107.4-6.5 201.9-9.6 282.7-9.6z" fill="#707070" p-id="1300" data-spm-anchor-id="a313x.7781069.0.i1" class="selected"></path><path d="M510.5 531.4c-16.6 0-30-13.4-30-30v-66.6c0-16.6 13.4-30 30-30s30 13.4 30 30v66.6c0 16.6-13.4 30-30 30zM710.3 597.8c-16.6 0-30-13.4-30-30v-133c0-16.6 13.4-30 30-30s30 13.4 30 30v132.9c0 16.7-13.4 30.1-30 30.1z" fill="#F0C900" p-id="1301"></path></svg>