<?xml version="1.0" standalone="no"?><!DOCTYPE svg PUBLIC "-//W3C//DTD SVG 1.1//EN" "http://www.w3.org/Graphics/SVG/1.1/DTD/svg11.dtd"><svg t="1616081906341" class="icon" viewBox="0 0 1024 1024" version="1.1" xmlns="http://www.w3.org/2000/svg" p-id="3823" xmlns:xlink="http://www.w3.org/1999/xlink" width="128" height="128"><defs><style type="text/css"></style></defs><path d="M512 512m-512 0a512 512 0 1 0 1024 0 512 512 0 1 0-1024 0Z" fill="#1B73F1" p-id="3824"></path><path d="M816.007 274.186a53.195 53.195 0 0 0-33.027-11.162h-3.262c-0.636 0-8.445 0.458-20.593 0.458a500.215 500.215 0 0 1-96.799-9.073c-48.166-10.162-103.69-56.787-119.93-65.95a55.873 55.873 0 0 0-53.979 0c-1.998 1.175-60.229 54.424-117.114 66.042a507.552 507.552 0 0 1-97.518 9.069c-12.155 0-19.96 0-20.685-0.45h-3.261a53.409 53.409 0 0 0-32.576 11.066 38.35 38.35 0 0 0-15.326 30.117v102.965c0 381.011 293.018 430.085 305.442 431.99 2.852 0.398 5.736 0.61 8.621 0.639a53.655 53.655 0 0 0 8.619-0.639c1.541 0 7.346-1.179 16.328-3.354-42.933-69.337-41.972-157.226 2.446-225.617h-0.551l-6.792-3.534a28.951 28.951 0 0 0-27.219 0l-45.356 24.135a28.962 28.962 0 0 1-30.502-2.104 28.948 28.948 0 0 1-11.593-28.287l8.53-50.801a28.945 28.945 0 0 0-8.442-25.583l-37.013-35.836a28.925 28.925 0 0 1-7.445-29.653 28.943 28.943 0 0 1 23.322-19.786l50.989-7.528a28.93 28.93 0 0 0 21.755-15.875l22.686-46.266a28.96 28.96 0 0 1 25.945-16.122 28.916 28.916 0 0 1 25.939 16.122l23.412 45.992a28.915 28.915 0 0 0 21.858 15.789l50.991 7.256a28.935 28.935 0 0 1 22.896 19.643 28.946 28.946 0 0 1-7.02 29.345l-36.752 36.287a29.034 29.034 0 0 0-8.618 18.864c62.779-36.235 139.764-37.679 203.845-3.808a605.42 605.42 0 0 0 13.517-131.359V304.209a38.694 38.694 0 0 0-15.768-30.023z" fill="#FFFFFF" p-id="3825"></path><path d="M614.334 542.437a29.513 29.513 0 0 0 0 6.8l9.071 50.716a28.97 28.97 0 0 1-11.402 28.372 28.957 28.957 0 0 1-30.506 2.286l-38.926-20.325c-44.421 68.392-45.367 156.279-2.448 225.616 55.073-13.066 228.338-72.75 278.056-297.276-64.08-33.871-141.075-32.435-203.845 3.811z" fill="#FFFFFF" opacity=".4" p-id="3826"></path></svg>