<?xml version="1.0" standalone="no"?><!DOCTYPE svg PUBLIC "-//W3C//DTD SVG 1.1//EN" "http://www.w3.org/Graphics/SVG/1.1/DTD/svg11.dtd"><svg t="1616081638079" class="icon" viewBox="0 0 1024 1024" version="1.1" xmlns="http://www.w3.org/2000/svg" p-id="7950" xmlns:xlink="http://www.w3.org/1999/xlink" width="128" height="128"><defs><style type="text/css"></style></defs><path d="M512 512m-512 0a512 512 0 1 0 1024 0 512 512 0 1 0-1024 0Z" fill="#40F4B1" p-id="7951"></path><path d="M822.487 729.079a126.154 126.154 0 0 0-36.875-89.307 126.16 126.16 0 0 0-89.255-37.008c-69.625 0-126.097 56.443-126.122 126.067-0.035 69.639 56.36 126.121 125.995 126.193 69.64 0.076 126.157-56.295 126.257-125.945z m-144.181 50.9v-32.838h-33.021c-9.965 0-18.05-8.073-18.05-18.063 0-9.963 8.085-18.052 18.05-18.052h32.92v-33.02c0-9.964 8.087-18.063 18.063-18.063 9.979 0 18.05 8.099 18.05 18.063v33.02h33.021c9.979 0 18.052 8.089 18.052 18.052 0 9.988-8.072 18.063-18.052 18.063l0.089-0.185h-33.005v33.022c0 9.962-8.089 18.049-18.063 18.049-9.968 0-18.054-8.088-18.054-18.048z" fill="#FFFFFF" p-id="7952"></path><path d="M452.472 248.657a218.07 218.07 0 0 0-12.502-72.986c-140.39 20.077-244.619 140.352-244.556 282.155v6.307c63.757 11.461 129.321-5.964 178.968-47.585 49.638-41.598 78.254-103.114 78.09-167.891z" fill="#FFFFFF" opacity=".4" p-id="7953"></path><path d="M764.74 443.625a284.676 284.676 0 0 0-103.307-205.977A284.582 284.582 0 0 0 439.49 175.67c25.99 73.28 11.083 154.857-39.168 214.197-50.236 59.354-128.24 87.528-204.81 73.98 2.208 99.91 56.703 191.328 143.531 240.791 11.118 6.378 16.281 19.655 12.417 31.878-17.596 23.415-26.614 64.813-30.566 87.467a13.616 13.616 0 0 0 3.069 11.114 13.617 13.617 0 0 0 10.464 4.787l230.064-0.564a13.742 13.742 0 0 0 12.322-8.013 13.72 13.72 0 0 0-1.978-14.565 146.431 146.431 0 0 1-30.665-112.204 146.655 146.655 0 0 1 63.071-100.79 146.58 146.58 0 0 1 117.05-20.91c6.246 1.472 12.678-1.693 15.327-7.534a283.56 283.56 0 0 0 25.122-131.679z m-195.914 28.973a88.195 88.195 0 0 1-45.906 77.306 88.12 88.12 0 0 1-130.546-77.306h-0.382a20.628 20.628 0 0 1 9.855-18.996 20.582 20.582 0 0 1 21.398 0 20.6 20.6 0 0 1 9.854 18.996 47.004 47.004 0 0 0 24.493 41.214c0.049 0.118 0.097 0.242 0.149 0.36a47.033 47.033 0 0 0 46.972-0.612c14.428-8.564 23.189-24.176 23.008-40.962a20.593 20.593 0 0 1 9.854-18.995 20.58 20.58 0 0 1 21.397 0 20.626 20.626 0 0 1 9.854 18.995z" fill="#FFFFFF" p-id="7954"></path></svg>