<?xml version="1.0" standalone="no"?><!DOCTYPE svg PUBLIC "-//W3C//DTD SVG 1.1//EN" "http://www.w3.org/Graphics/SVG/1.1/DTD/svg11.dtd"><svg t="1616081657056" class="icon" viewBox="0 0 1025 1024" version="1.1" xmlns="http://www.w3.org/2000/svg" p-id="8538" xmlns:xlink="http://www.w3.org/1999/xlink" width="128.125" height="128"><defs><style type="text/css"></style></defs><path d="M514.275556 512m-510.862223 0a510.862222 510.862222 0 1 0 1021.724445 0 510.862222 510.862222 0 1 0-1021.724445 0Z" fill="#C71D23" p-id="8539"></path><path d="M772.551111 455.111111H483.555556c-13.653333 0-25.031111 11.377778-25.031112 25.031111v62.577778c0 13.653333 11.377778 25.031111 25.031112 25.031111L659.911111 568.888889c13.653333 0 25.031111 11.377778 25.031111 25.031111v13.653333c0 42.097778-34.133333 75.093333-75.093333 75.093334h-238.933333c-13.653333 0-25.031111-11.377778-25.031112-25.031111v-238.933334c0-42.097778 34.133333-75.093333 75.093334-75.093333h352.711111c13.653333 0 25.031111-11.377778 25.031111-25.031111v-62.577778c0-13.653333-11.377778-25.031111-25.031111-25.031111H420.977778c-104.675556 0-188.871111 84.195556-188.871111 188.871111v352.711111c0 13.653333 11.377778 25.031111 25.031111 25.031111h372.053333c94.435556 0 170.666667-76.231111 170.666667-170.666666V480.142222c-1.137778-13.653333-12.515556-25.031111-27.306667-25.031111z" fill="#FFFFFF" p-id="8540"></path></svg>