<?xml version="1.0" standalone="no"?><!DOCTYPE svg PUBLIC "-//W3C//DTD SVG 1.1//EN" "http://www.w3.org/Graphics/SVG/1.1/DTD/svg11.dtd"><svg t="1616084801943" class="icon" viewBox="0 0 1024 1024" version="1.1" xmlns="http://www.w3.org/2000/svg" p-id="3969" xmlns:xlink="http://www.w3.org/1999/xlink" width="128" height="128"><defs><style type="text/css"></style></defs><path d="M426.112 488.938667l-46.613333 46.570666a64.042667 64.042667 0 0 0-70.101334 9.92l-2.752 2.581334-120.661333 120.682666a64 64 0 0 0-2.602667 87.765334l2.602667 2.752 90.496 90.496a64 64 0 0 0 87.786667 2.581333l2.730666-2.56 120.682667-120.704c13.397333-13.397333 19.605333-31.253333 18.645333-48.789333l51.626667-51.648a128.042667 128.042667 0 0 1-25.024 145.706666l-120.682667 120.682667a128 128 0 0 1-181.013333 0l-90.517333-90.517333a128 128 0 0 1 0-181.013334l120.682666-120.682666a128.042667 128.042667 0 0 1 164.693334-13.824zM804.458667 140.714667l90.517333 90.517333a128 128 0 0 1 0 181.013333l-120.682667 120.682667a128.042667 128.042667 0 0 1-145.706666 25.024l51.648-51.626667a63.850667 63.850667 0 0 0 46.08-16.064l2.709333-2.581333 120.682667-120.682667a64 64 0 0 0 2.581333-87.786666l-2.56-2.730667-90.517333-90.496a64 64 0 0 0-87.786667-2.602667l-2.730667 2.602667-120.682666 120.661333a64.021333 64.021333 0 0 0-12.501334 72.853334l-46.570666 46.613333a128.042667 128.042667 0 0 1 13.824-164.714667l120.682666-120.682666a128 128 0 0 1 181.013334 0z" fill="#333333" p-id="3970"></path><path d="M624.938667 380.586667a8.533333 8.533333 0 0 1 12.074666 0l33.194667 33.173333a8.533333 8.533333 0 0 1 0 12.074667L425.813333 670.208a8.533333 8.533333 0 0 1-12.074666 0l-33.194667-33.194667a8.533333 8.533333 0 0 1 0-12.074666L624.938667 380.586667z" fill="#333333" p-id="3971"></path></svg>