<?xml version="1.0" standalone="no"?><!DOCTYPE svg PUBLIC "-//W3C//DTD SVG 1.1//EN" "http://www.w3.org/Graphics/SVG/1.1/DTD/svg11.dtd"><svg t="1616081627450" class="icon" viewBox="0 0 1024 1024" version="1.1" xmlns="http://www.w3.org/2000/svg" p-id="7656" xmlns:xlink="http://www.w3.org/1999/xlink" width="128" height="128"><defs><style type="text/css"></style></defs><path d="M512 512m-512 0a512 512 0 1 0 1024 0 512 512 0 1 0-1024 0Z" fill="#F0E22C" p-id="7657"></path><path d="M653.998 437.604c-35.295-64.941-32.334-143.896 7.716-206.02a318.708 318.708 0 0 0-143.199-35.928l-4.21 0.085c-110.009 0.2-212.101 57.127-269.895 150.474-57.793 93.342-63.085 209.872-13.975 308.051 0.148 0.354 0.148 0.777 0 1.123l-28.915 82.267c-5.414 15.359-2.192 32.429 8.423 44.795 10.632 12.357 27.059 18.133 43.1 15.162l90.796-17.491a1.33 1.33 0 0 1 1.05 0 316.812 316.812 0 0 0 170.03 49.823c9.471 0 19.37-0.436 29.348-1.313 151.576-13.729 272.019-132.854 287.031-283.883v-1.137c-74.056-0.445-142.007-41.07-177.3-106.008z m-268 156.792l0.259-0.097c-10.233 0.053-18.643-8.063-18.929-18.269a17.426 17.426 0 0 1 4.859-12.859 17.541 17.541 0 0 1 12.672-5.402H386c10.146 0 18.361 8.2 18.361 18.31-0.004 10.112-8.216 18.317-18.363 18.317z m253.107-0.094h-63.543l-8.757 50.353c-1.771 9.944-11.284 16.569-21.261 14.815-9.975-1.771-16.624-11.265-14.854-21.197l7.805-43.707H458.48l-8.771 50.345c-1.759 9.95-11.275 16.578-21.244 14.814-9.976-1.758-16.628-11.246-14.857-21.196l28.738-162.572h-57.233c-10.135 0-18.36-8.201-18.36-18.311 0-10.108 8.226-18.309 18.36-18.309h63.542l8.771-50.348c1.76-9.938 11.275-16.578 21.246-14.815 9.974 1.759 16.626 11.252 14.855 21.199l-7.792 43.706h80.015l8.756-50.346c1.822-9.962 11.399-16.576 21.384-14.766h0.447c9.982 1.77 16.646 11.271 14.888 21.231l-10.691 58.212a17.406 17.406 0 0 1-2.453 13.802l-16.031 90.471h57.048c10.135 0 18.362 8.188 18.362 18.311 0.006 10.123-8.22 18.308-18.355 18.308z m0.435-118.517h-1.919c-10.146 0-18.359-8.2-18.359-18.312 0-10.109 8.213-18.313 18.359-18.313h1.919c10.145 0 18.36 8.2 18.36 18.313-0.002 10.112-8.215 18.312-18.36 18.312z" fill="#FFFFFF" p-id="7658"></path><path d="M479.095 480.106l-14.491 82.248h79.57l14.408-82.248z" fill="#FFFFFF" p-id="7659"></path><path d="M664.528 233.339c-39.035 61.174-41.926 138.912-7.534 202.851 34.404 63.95 100.629 103.951 172.818 104.382 12.368-126.809-53.067-248.463-165.284-307.233z" fill="#FFFFFF" opacity=".4" p-id="7660"></path></svg>