<?xml version="1.0" standalone="no"?><!DOCTYPE svg PUBLIC "-//W3C//DTD SVG 1.1//EN" "http://www.w3.org/Graphics/SVG/1.1/DTD/svg11.dtd"><svg t="1615993629899" class="icon" viewBox="0 0 1024 1024" version="1.1" xmlns="http://www.w3.org/2000/svg" p-id="2639" xmlns:xlink="http://www.w3.org/1999/xlink" width="128" height="128"><defs><style type="text/css"></style></defs><path d="M769.3 871.6H258.7c-92.9 0-168.5-75.6-168.5-168.5V323.3c0-92.9 75.6-168.5 168.5-168.5h510.5c92.9 0 168.5 75.6 168.5 168.5v379.8c0.1 92.9-75.5 168.5-168.4 168.5zM258.7 250.9c-39.9 0-72.4 32.5-72.4 72.4v379.8c0 39.9 32.5 72.4 72.4 72.4h510.5c39.9 0 72.4-32.5 72.4-72.4V323.3c0-39.9-32.5-72.4-72.4-72.4H258.7z" fill="#BDD2EF" p-id="2640"></path><path d="M370.8 331.7m-101.8 0a101.8 101.8 0 1 0 203.6 0 101.8 101.8 0 1 0-203.6 0Z" fill="#2867CE" p-id="2641"></path><path d="M613.7 414.7L474.1 625.4 374.5 485 235 702.3h558z" fill="#2867CE" p-id="2642"></path></svg>