<?xml version="1.0" standalone="no"?><!DOCTYPE svg PUBLIC "-//W3C//DTD SVG 1.1//EN" "http://www.w3.org/Graphics/SVG/1.1/DTD/svg11.dtd"><svg t="1615994598688" class="icon" viewBox="0 0 1024 1024" version="1.1" xmlns="http://www.w3.org/2000/svg" p-id="8063" xmlns:xlink="http://www.w3.org/1999/xlink" width="128" height="128"><defs><style type="text/css"></style></defs><path d="M741.5 172.4h-455c-94.6 0-171.6 77-171.6 171.6v338.5c0 94.6 77 171.6 171.6 171.6h455c94.6 0 171.6-77 171.6-171.6V344c-0.1-94.6-77-171.6-171.6-171.6z m128.8 510c0 71-57.8 128.8-128.8 128.8h-455c-71 0-128.8-57.8-128.8-128.8V344c0-71 57.8-128.8 128.8-128.8h455c71 0 128.8 57.8 128.8 128.8v338.4z" p-id="8064" fill="#707070"></path><path d="M410.5 478.9c58.6 0 106.2-47.7 106.2-106.2 0-58.6-47.7-106.2-106.2-106.2-58.6 0-106.2 47.7-106.2 106.2S352 478.9 410.5 478.9z m0-169.7c35 0 63.5 28.5 63.5 63.5s-28.5 63.5-63.5 63.5-63.5-28.5-63.5-63.5c0-35.1 28.5-63.5 63.5-63.5zM657.8 473.3c-9.7-15.6-26.5-25-44.8-25.3-18.5-0.3-35.4 8.7-45.5 24l-71.4 107.8-37.4-52.7c-10.3-14.6-27-23-45-22.6-17.9 0.4-34.3 9.6-43.9 24.7l-90.5 141c-4.2 6.6-4.5 14.9-0.8 21.8s10.9 11.1 18.7 11.1h465.4c7.8 0 14.9-4.2 18.7-11 3.8-6.8 3.6-15.1-0.6-21.7L657.8 473.3zM336.4 660.4l69.4-108.1c2.7-4.3 6.8-5 9-5s6.3 0.5 9.2 4.6l55.4 78.1c4 5.7 10.5 9 17.4 9h0.3c7-0.1 13.6-3.7 17.5-9.6l88.6-133.8c3-4.5 7.4-5 9.3-4.9 1.8 0 6.3 0.6 9.2 5.2l102.6 164.5H336.4z" p-id="8065" fill="#707070"></path></svg>