<?xml version="1.0" standalone="no"?><!DOCTYPE svg PUBLIC "-//W3C//DTD SVG 1.1//EN" "http://www.w3.org/Graphics/SVG/1.1/DTD/svg11.dtd"><svg t="1616081607134" class="icon" viewBox="0 0 1024 1024" version="1.1" xmlns="http://www.w3.org/2000/svg" p-id="7218" xmlns:xlink="http://www.w3.org/1999/xlink" width="128" height="128"><defs><style type="text/css"></style></defs><path d="M905.39 437.69C895.08 231.3 723.77 66.19 513.25 66.19c-208.45 0-379.76 165.11-390.08 371.51-33.02 28.89-55.72 78.43-55.72 127.96 0 66.05 39.21 144.47 101.13 144.47 55.73 0 55.73-61.92 55.73-144.47 0-76.36 0-138.28-37.15-144.48 18.58-165.11 156.86-293.07 326.1-293.07 167.18 0 307.53 125.9 326.1 288.94-37.15 12.38-37.15 68.11-37.15 144.47 0 55.72 0 94.94 10.32 121.77-49.54 78.43-121.77 134.15-212.58 156.86-16.52-22.7-49.54-39.21-88.75-39.21-55.72 0-101.13 28.89-101.13 61.92 0 33.02 45.41 61.92 101.13 61.92s101.13-28.9 101.13-61.92c88.74-22.71 167.17-84.62 216.71-160.98 6.19 6.19 16.51 6.19 28.89 6.19 61.92 0 101.13-78.43 101.13-144.47 2.06-47.48-20.64-97.02-53.67-125.91z m0 0" fill="#EF7A2B" p-id="7219"></path><path d="M469.91 542.95c22.71 0 39.22-18.57 39.22-39.21v-97c0-22.71-18.57-39.22-39.22-39.22-20.64 0-39.21 18.57-39.21 39.22v97c-0.01 20.64 16.51 39.21 39.21 39.21z m222.9-41.28v-97.01c0-22.7-18.58-39.21-39.21-39.21s-39.22 18.58-39.22 39.21v97.01c0 22.71 18.58 39.22 39.22 39.22s39.21-16.51 39.21-39.22z m0 0" fill="#EF7A2B" p-id="7220"></path></svg>