<?xml version="1.0" standalone="no"?><!DOCTYPE svg PUBLIC "-//W3C//DTD SVG 1.1//EN" "http://www.w3.org/Graphics/SVG/1.1/DTD/svg11.dtd"><svg t="1616081648023" class="icon" viewBox="0 0 1024 1024" version="1.1" xmlns="http://www.w3.org/2000/svg" p-id="8245" xmlns:xlink="http://www.w3.org/1999/xlink" width="128" height="128"><defs><style type="text/css"></style></defs><path d="M512 512m-512 0a512 512 0 1 0 1024 0 512 512 0 1 0-1024 0Z" fill="#F9A336" p-id="8246"></path><path d="M478.863 281.379c27.563-14.681 61.525-10.109 84.158 11.295a13.88 13.88 0 0 0 12.704 3.952 215.253 215.253 0 0 0 51.233-18.685c4.016-2.174 6.773-6.108 7.419-10.591 0.655-4.485-0.902-9.027-4.147-12.209l-36.441-36.196c-46.007-45.536-120.585-45.536-166.592 0L271.128 372.822l-2.682 3.643c-8.651 11.974-13.281 26.356-13.203 41.098V578.62c25.404-10.901 52.646-16.99 80.321-17.993l-0.301-0.2c0-11.891 9.744-21.537 21.746-21.537h294.363c11.416 0.765 20.271 10.153 20.271 21.492 0 11.323-8.854 20.721-20.271 21.479H440c40.799 19.337 74.749 50.416 97.407 89.174h30.764c11.424 0.774 20.279 10.167 20.279 21.491s-8.856 20.718-20.279 21.5H556.65c16.915 52.178 13.7 108.718-9.022 158.681h106.43c64.85-0.22 117.337-52.293 117.451-116.518V544.697l-1.189-122.13c-0.136-17.984-7.241-35.232-19.854-48.183l-2.494-2.551-44.171-43.762c-5.039-4.889-12.898-5.513-18.675-1.465-29.428 19.615-62.386 33.467-97.084 40.814a15.084 15.084 0 0 0-9.945 8.248c-13.644 27.883-43.87 43.905-74.868 39.676-30.998-4.228-55.739-27.729-61.277-58.221-5.556-30.5 9.349-61.077 36.911-75.744z" fill="#FFFFFF" p-id="8247"></path><path d="M527.873 314.113c-5.848-0.307-11.581 1.751-15.827 5.729a21.042 21.042 0 0 0-6.721 15.315c-0.487 11.875 8.777 21.889 20.757 22.421h4.473c20.946 0 109.208-3.917 176.913-67.441l1.104-1.085c28.229-32.735 39.854-76.425 31.565-118.678-1.2-7.956-6.762-14.581-14.438-17.202-7.678-2.626-16.176-0.792-22.059 4.765-5.885 5.532-8.166 13.848-5.896 21.576 5.448 28.407-2.155 57.744-20.768 80.039-62.245 57.128-148.122 54.561-149.103 54.561z" fill="#FFFFFF" p-id="8248"></path><path d="M365.451 671.15h171.955c-22.657-38.772-56.607-69.856-97.406-89.191h-83.09c-11.891-0.06-21.535-9.562-21.646-21.335a224.283 224.283 0 0 0-80.021 17.995v177.574c0.057 64.312 52.625 116.461 117.539 116.614h174.745a219.692 219.692 0 0 0 9.045-158.697H365.451c-8.108 0.551-15.84-3.428-20.053-10.294a21.415 21.415 0 0 1 0-22.372c4.213-6.885 11.945-10.844 20.053-10.294z" fill="#FFFFFF" opacity=".4" p-id="8249"></path></svg>