<?xml version="1.0" standalone="no"?><!DOCTYPE svg PUBLIC "-//W3C//DTD SVG 1.1//EN" "http://www.w3.org/Graphics/SVG/1.1/DTD/svg11.dtd"><svg t="1615993582359" class="icon" viewBox="0 0 1024 1024" version="1.1" xmlns="http://www.w3.org/2000/svg" p-id="2345" xmlns:xlink="http://www.w3.org/1999/xlink" width="128" height="128"><defs><style type="text/css"></style></defs><path d="M382.2 502.9H217.4c-47.5 0-86.2-38.7-86.2-86.2V251.9c0-47.5 38.7-86.2 86.2-86.2h164.8c47.5 0 86.2 38.7 86.2 86.2v164.8c0.1 47.6-38.6 86.2-86.2 86.2z m-154.9-96.1h145v-145h-145v145zM382.2 894.9H217.4c-47.5 0-86.2-38.7-86.2-86.2V643.8c0-47.5 38.7-86.2 86.2-86.2h164.8c47.5 0 86.2 38.7 86.2 86.2v164.8c0.1 47.6-38.6 86.3-86.2 86.3z m-154.9-96.2h145v-145h-145v145z" fill="#BDD2EF" p-id="2346"></path><path d="M694.1 537.1c-23 0-44.7-9-61-25.3L516.6 395.3c-33.6-33.6-33.6-88.3 0-121.9l116.6-116.6c16.3-16.3 37.9-25.3 61-25.3 23 0 44.7 9 61 25.3l116.5 116.5c33.6 33.6 33.6 88.3 0 121.9L755.1 511.8c-16.3 16.3-38 25.3-61 25.3zM591.6 334.3l102.5 102.5 102.5-102.5-102.5-102.5-102.5 102.5z" fill="#2867CE" p-id="2347"></path><path d="M776.5 894.9H611.7c-47.5 0-86.2-38.7-86.2-86.2V643.8c0-47.5 38.7-86.2 86.2-86.2h164.8c47.5 0 86.2 38.7 86.2 86.2v164.8c0 47.6-38.7 86.3-86.2 86.3z m-154.9-96.2h145v-145h-145v145z" fill="#BDD2EF" p-id="2348"></path></svg>