<?xml version="1.0" standalone="no"?><!DOCTYPE svg PUBLIC "-//W3C//DTD SVG 1.1//EN" "http://www.w3.org/Graphics/SVG/1.1/DTD/svg11.dtd"><svg t="1615913881687" class="icon" viewBox="0 0 1024 1024" version="1.1" xmlns="http://www.w3.org/2000/svg" p-id="7251" xmlns:xlink="http://www.w3.org/1999/xlink" width="128" height="128"><defs><style type="text/css"></style></defs><path d="M512 512m-512 0a512 512 0 1 0 1024 0 512 512 0 1 0-1024 0Z" fill="#15C434" p-id="7252"></path><path d="M825.804 582.368c0-89.149-85.233-161.42-190.375-161.42-105.141 0-190.375 72.271-190.375 161.42 0 89.15 85.234 161.42 190.375 161.42 22.077 0 43.27-3.196 62.986-9.057 5.626-1.672 62.218 38.114 65.089 35.691s-25.78-51.72-18.917-55.8c49.106-29.191 81.217-77.541 81.217-132.254zM575.95 559.207c-14.723 0-26.658-11.938-26.658-26.662 0-14.723 11.936-26.658 26.658-26.658 14.724 0 26.658 11.936 26.658 26.658 0 14.724-11.934 26.662-26.658 26.662z m124.025 0c-14.723 0-26.658-11.938-26.658-26.662 0-14.723 11.936-26.658 26.658-26.658 14.724 0 26.659 11.936 26.659 26.658 0 14.724-11.936 26.662-26.659 26.662z m0 0" fill="#FFFFFF" p-id="7253"></path><path d="M422.978 252.292c-124.531 0-225.481 85.883-225.481 191.821 0 27.123 6.621 52.928 18.559 76.314C232.757 516.279 250.956 514 270 514c81.186 0 147 41.414 147 92.5 0 10.162-2.612 19.938-7.423 29.085 4.435 0.222 8.9 0.348 13.401 0.348 5.83 0 11.61-0.187 17.327-0.556-6.309-16.715-9.73-34.521-9.73-53.009 0.004-95.927 91.717-173.693 204.854-173.693 3.09 0 6.159 0.067 9.215 0.184-19.46-89.099-111.297-156.567-221.666-156.567z m-77.09 161.42c-18.392 0-33.299-14.908-33.299-33.299 0-18.388 14.908-33.296 33.299-33.296 18.387 0 33.295 14.908 33.295 33.296 0 18.391-14.908 33.299-33.295 33.299z m154.904 0c-18.388 0-33.296-14.908-33.296-33.299 0-18.388 14.908-33.296 33.296-33.296 18.391 0 33.298 14.908 33.298 33.296 0 18.391-14.907 33.299-33.298 33.299z" fill="#FFFFFF" p-id="7254"></path><path d="M270 514c-19.044 0-37.243 2.279-53.944 6.427 15.305 29.982 39.35 55.989 69.399 75.694 8.851 5.804-29.853 61.271-22.529 66.45s67.883-43.248 74.597-40.906c22.437 7.824 46.68 12.652 72.053 13.92 4.811-9.146 7.423-18.923 7.423-29.085C417 555.414 351.186 514 270 514z" fill="#FFFFFF" opacity=".4" p-id="7255"></path></svg>