<svg id="图层_1" data-name="图层 1" xmlns="http://www.w3.org/2000/svg" xmlns:xlink="http://www.w3.org/1999/xlink" viewBox="0 0 741.96 623.24"><defs><style>.cls-1{fill:url(#未命名的渐变);}.cls-2{fill:url(#未命名的渐变_2);}.cls-3{fill:url(#未命名的渐变_3);}.cls-4{fill:url(#未命名的渐变_4);}.cls-5{fill:url(#未命名的渐变_5);}.cls-6{fill:url(#未命名的渐变_6);}.cls-7{fill:url(#未命名的渐变_7);}.cls-8{fill:url(#未命名的渐变_8);}.cls-9{fill:url(#未命名的渐变_9);}.cls-10{fill:url(#未命名的渐变_10);}.cls-11{fill:url(#未命名的渐变_11);}.cls-12{fill:url(#未命名的渐变_12);}.cls-13{fill:#c6d5e6;}.cls-14{fill:url(#未命名的渐变_13);}.cls-15{fill:url(#未命名的渐变_14);}.cls-16{fill:url(#未命名的渐变_15);}.cls-17{fill:url(#未命名的渐变_16);}.cls-18{fill:url(#未命名的渐变_17);}.cls-19{fill:url(#未命名的渐变_18);}.cls-20{fill:url(#未命名的渐变_19);}.cls-21{fill:url(#未命名的渐变_20);}.cls-22{fill:url(#未命名的渐变_21);}.cls-23{fill:#ecf0f7;}.cls-24{fill:url(#未命名的渐变_22);}.cls-25{fill:#ffbe92;}.cls-26{fill:#171c61;}.cls-27{fill:#f8b62d;}.cls-28{fill:#e6e8e8;}.cls-29{fill:url(#未命名的渐变_23);}.cls-30{fill:url(#未命名的渐变_24);}</style><linearGradient id="未命名的渐变" x1="257.5" y1="271.46" x2="257.5" y2="368.25" gradientTransform="matrix(1, 0, 0, -1, 0, 588.94)" gradientUnits="userSpaceOnUse"><stop offset="0" stop-color="#fff"/><stop offset="1" stop-color="#dbe3ee"/></linearGradient><linearGradient id="未命名的渐变_2" x1="192.89" y1="213.47" x2="192.89" y2="429.95" xlink:href="#未命名的渐变"/><linearGradient id="未命名的渐变_3" x1="568.66" y1="256.15" x2="568.66" y2="412.63" xlink:href="#未命名的渐变"/><linearGradient id="未命名的渐变_4" x1="631.19" y1="233.48" x2="631.19" y2="403.22" xlink:href="#未命名的渐变"/><linearGradient id="未命名的渐变_5" x1="122.48" y1="191.4" x2="122.48" y2="341.91" gradientTransform="matrix(1, 0, 0, -1, -30.98, 565.07)" gradientUnits="userSpaceOnUse"><stop offset="0" stop-color="#fff"/><stop offset="1" stop-color="#edf1f9"/></linearGradient><linearGradient id="未命名的渐变_6" x1="685.15" y1="208" x2="685.15" y2="331.13" xlink:href="#未命名的渐变_5"/><linearGradient id="未命名的渐变_7" x1="128.44" y1="463.7" x2="128.44" y2="528.25" gradientTransform="matrix(1, 0, 0, -1, 0, 588.94)" gradientUnits="userSpaceOnUse"><stop offset="0.23" stop-color="#fff"/><stop offset="1" stop-color="#d3dfee"/></linearGradient><linearGradient id="未命名的渐变_8" x1="645.51" y1="500.53" x2="645.51" y2="565.07" xlink:href="#未命名的渐变_7"/><linearGradient id="未命名的渐变_9" x1="515.74" y1="457.35" x2="515.74" y2="504.07" xlink:href="#未命名的渐变_7"/><linearGradient id="未命名的渐变_10" x1="401.96" y1="-58.17" x2="401.96" y2="293.95" gradientTransform="matrix(1, 0, 0, -1, -30.98, 565.07)" gradientUnits="userSpaceOnUse"><stop offset="0.41" stop-color="#fff"/><stop offset="1" stop-color="#dae4ef"/></linearGradient><linearGradient id="未命名的渐变_11" x1="192.88" y1="118.37" x2="141.45" y2="179.66" gradientTransform="matrix(1, 0, 0, -1, 0, 588.94)" gradientUnits="userSpaceOnUse"><stop offset="0.4" stop-color="#eff4f8"/><stop offset="1" stop-color="#d4dfec"/></linearGradient><linearGradient id="未命名的渐变_12" x1="113.85" y1="238.66" x2="178.04" y2="238.66" gradientTransform="matrix(1, 0, 0, -1, 0, 588.94)" gradientUnits="userSpaceOnUse"><stop offset="0.1" stop-color="#f0f5f8"/><stop offset="1" stop-color="#b4c7dc"/></linearGradient><linearGradient id="未命名的渐变_13" x1="711.75" y1="138.34" x2="664.39" y2="194.78" xlink:href="#未命名的渐变_11"/><linearGradient id="未命名的渐变_14" x1="638.95" y1="249.11" x2="698.05" y2="249.11" xlink:href="#未命名的渐变_12"/><linearGradient id="未命名的渐变_15" x1="253.09" y1="237.51" x2="227.65" y2="267.82" gradientTransform="matrix(1, 0, 0, -1, 0, 588.94)" gradientUnits="userSpaceOnUse"><stop offset="0" stop-color="#eaeff6"/><stop offset="1" stop-color="#cddae9"/></linearGradient><linearGradient id="未命名的渐变_16" x1="213.99" y1="297.01" x2="245.73" y2="297.01" xlink:href="#未命名的渐变_12"/><linearGradient id="未命名的渐变_17" x1="555.93" y1="12.18" x2="489.5" y2="243.86" gradientTransform="matrix(1, 0, 0, -1, -30.98, 565.07)" gradientUnits="userSpaceOnUse"><stop offset="0.09" stop-color="#fff"/><stop offset="0.94" stop-color="#bbcbe0"/></linearGradient><linearGradient id="未命名的渐变_18" x1="376.84" y1="237.16" x2="429.65" y2="237.16" gradientTransform="matrix(1, 0, 0, -1, -30.98, 565.07)" gradientUnits="userSpaceOnUse"><stop offset="0" stop-color="#dde5f0"/><stop offset="1" stop-color="#9fb7ce"/></linearGradient><linearGradient id="未命名的渐变_19" x1="357.29" y1="212.84" x2="449.2" y2="212.84" gradientTransform="matrix(1, 0, 0, -1, -30.98, 565.07)" gradientUnits="userSpaceOnUse"><stop offset="0" stop-color="#d4deec"/><stop offset="1" stop-color="#b6c9de"/></linearGradient><linearGradient id="未命名的渐变_20" x1="248.52" y1="363.02" x2="557.97" y2="363.02" gradientTransform="matrix(1, 0, 0, -1, 0, 588.94)" gradientUnits="userSpaceOnUse"><stop offset="0" stop-color="#ced9e9"/><stop offset="1" stop-color="#a7bfd6"/></linearGradient><linearGradient id="未命名的渐变_21" x1="541.89" y1="372.35" x2="264.61" y2="372.35" gradientTransform="matrix(1, 0, 0, -1, 0, 588.94)" gradientUnits="userSpaceOnUse"><stop offset="0" stop-color="#e7ecf4"/><stop offset="1" stop-color="#e4e9f3"/></linearGradient><linearGradient id="未命名的渐变_22" x1="455.02" y1="371.03" x2="351.48" y2="371.03" gradientTransform="matrix(1, 0, 0, -1, 0, 588.94)" gradientUnits="userSpaceOnUse"><stop offset="0" stop-color="#d4deeb"/><stop offset="1" stop-color="#a7bfd6"/></linearGradient><linearGradient id="未命名的渐变_23" x1="508.18" y1="115.25" x2="484.2" y2="181.15" gradientTransform="matrix(1, 0, 0, -1, 0, 588.94)" gradientUnits="userSpaceOnUse"><stop offset="0" stop-color="#78c8ff"/><stop offset="0.69" stop-color="#2a80e2"/></linearGradient><linearGradient id="未命名的渐变_24" x1="497.04" y1="173.81" x2="497.04" y2="222.33" gradientTransform="matrix(1, 0, 0, -1, 0, 588.94)" gradientUnits="userSpaceOnUse"><stop offset="0" stop-color="#f2a319"/><stop offset="0.48" stop-color="#ffc552"/></linearGradient></defs><g id="禁止访问"><g id="背景"><path class="cls-1" d="M272,224.1v-3.41h-29.5v4H236v92.83h43V224.1Zm3.34,82.74h-36v-2.75h36Zm0-12.68h-36v-2.75h36Zm0-12.68h-36v-2.75h36Zm0-12.34h-36v-2.75h36Zm0-12.31h-36v-2.75h36Zm0-12.68h-36V241.4h36Zm0-12.34h-36v-2.75h36Z" transform="translate(-30.98 -23.87)"/><path class="cls-2" d="M214,275.91V167.73H181.22V159H167.36v53.33h-3.73V375.47h58.51V275.91Zm-24.49,31.81h-8.26v-8h8.26Zm0-12.53h-8.26v-8h8.26Zm0-12.47h-8.26v-8h8.26Zm0-12.44h-8.26v-8h8.26Zm0-12.53h-8.26v-8h8.26Zm0-25h-8.26v-8h8.26Zm0-12.53h-8.26v-8h8.26Zm0-12.48h-8.26v-8h8.26Zm0-12.44h-8.26v-8h8.26Zm0-12.53h-8.26v-8h8.26Zm12.35,125h-8.26v-8h8.26Zm0-12.53h-8.26v-8h8.26Zm0-12.47h-8.26v-8h8.26Zm0-12.44h-8.26v-8h8.26Zm0-12.53h-8.26v-8h8.26Zm0-25h-8.26v-8h8.26Zm0-12.53h-8.26v-8h8.26Zm0-12.48h-8.26v-8h8.26Zm0-12.44h-8.26v-8h8.26Zm0-12.53h-8.26v-8h8.26Z" transform="translate(-30.98 -23.87)"/><path class="cls-3" d="M536.28,332.79c.36-4.65,0-156.48,0-156.48h18.53V210h29.5v70.45H601v52.32Z" transform="translate(-30.98 -23.87)"/><path class="cls-4" d="M657.5,264.65V259.8h-5V217.47H640.3v-4.7h-8.23v-6.91h-4.29V185.72h-3.09V206h-3.94v6.91h-12.2v11.32h-7V355.46h59.38V264.64H657.5ZM612,317.43h-4V302.19h4Zm0-18.65h-4V283.54h4Zm0-18.65h-4V264.89h4Zm0-19h-4V245.91h4Zm0-19h-4V226.92h4Zm8.28,75.27h-4V302.19h4Zm0-18.65h-4V283.54h4Zm0-18.65h-4V264.89h4Zm0-19h-4V245.91h4Zm0-19h-4V226.92h4Zm8.27,75.27h-4V302.19h4Zm0-18.65h-4V283.54h4Zm0-18.65h-4V264.89h4Zm0-19h-4V245.91h4Zm0-19h-4V226.92h4Zm8.28,75.27h-4V302.19h4Zm0-18.65h-4V283.54h4Zm0-18.65h-4V264.89h4Zm0-19h-4V245.91h4Zm0-19h-4V226.92h4Zm8.28,75.27h-4V302.19h4Zm0-18.65h-4V283.54h4Zm0-18.65h-4V264.89h4Zm0-19h-4V245.91h4Zm0-19h-4V226.92h4Z" transform="translate(-30.98 -23.87)"/><polygon class="cls-5" points="64.87 373.67 64.87 284.13 75.13 284.13 75.13 238.43 110.39 223.16 110.39 283.41 118.12 283.41 118.12 373.67 64.87 373.67"/><polygon class="cls-6" points="669.64 357.07 638.7 357.07 638.7 233.94 669.64 248.91 669.64 357.07"/><path class="cls-7" d="M90.67,84.13S100,58.65,123,68.65c5.3-5.38,11.86-9.29,20.73-7.53A23.81,23.81,0,0,1,160.23,74c2.78-.13,25,.61,25,23.7s-26.94,22.65-28.89,20.82c-2.4,2.14-13.94,13.75-27.94.5-3,2.59-12.93,13.56-28.58-1.58-7.25,3-24.48,5.36-27.82-12.43S85.83,82.15,90.67,84.13Z" transform="translate(-30.98 -23.87)"/><path class="cls-8" d="M607.74,47.31s9.34-25.48,32.3-15.48c5.3-5.38,11.86-9.29,20.73-7.53A23.78,23.78,0,0,1,677.3,37.13c2.78-.13,25,.61,25,23.7S675.4,83.47,673.45,81.64c-2.4,2.14-13.94,13.75-27.94.5-3,2.59-12.93,13.56-28.58-1.58-7.25,3-24.48,5.36-27.82-12.43S602.9,45.33,607.74,47.31Z" transform="translate(-30.98 -23.87)"/><path class="cls-9" d="M488.4,101.83s6.76-18.45,23.38-11.2c3.84-3.9,8.58-6.73,15-5.45a17.23,17.23,0,0,1,12,9.28c2-.09,18.13.44,18.13,17.15S537.38,128,536,126.68c-1.74,1.55-10.09,9.95-20.23.37-2.19,1.87-9.36,9.82-20.68-1.14-5.25,2.19-17.72,3.88-20.14-9S484.9,100.4,488.4,101.83Z" transform="translate(-30.98 -23.87)"/><ellipse class="cls-10" cx="370.98" cy="447.18" rx="370.98" ry="176.06"/></g><g id="树苗"><path class="cls-11" d="M147.9,449.52s-3.53,5,2.37,12.47c5.26,6.64,13.57,5.35,16.33,3.22.85,5.78,7.94,18,19.16,11.07,10.55-6.47,5.47-16.31,2.1-20.18,6.59-1.86,11.5-17.65-3.62-23.1,2.24-6.52,2.64-9.47-.64-15.33-3.16-5.64-8.35-6.54-16.63-3.11l-12,5.05-7.63-14.24-4.08,2.36,8.8,13.6-11.66,5.85s-10,3.9-5.67,14.6C138.74,451.69,147.9,449.52,147.9,449.52Z" transform="translate(-30.98 -23.87)"/><path class="cls-12" d="M127.61,388.8h36.06s11.65.33,14-13c2.55-14.61-8.08-16.62-8.08-16.62s6.4-2.94,5-14-11.12-12.44-15.17-11.93c.66-6.55,2-21.38-13.36-21.53-14.87-.15-14.78,14.82-13.67,20.72-5.3.06-21.31,8-10.05,25.45-6.13,5.25-8.72,8.28-8.45,15.85S118.77,388.8,127.61,388.8Z" transform="translate(-30.98 -23.87)"/><polygon class="cls-13" points="131.8 344.69 116.42 354.81 116 345.03 125.72 333.57 115.85 341.55 114.57 311.65 113.63 341.75 103.25 333.49 113.53 344.81 113.22 354.88 97.4 343.26 113.1 358.51 112.31 383.87 117.66 383.87 116.58 358.67 131.8 344.69"/><path class="cls-14" d="M670.33,431.21s-3.25,4.62,2.18,11.48c4.84,6.12,12.5,4.93,15,3,.78,5.32,7.32,16.53,17.65,10.2,9.71-6,5-15,1.93-18.58,6.07-1.71,10.59-16.26-3.33-21.27,2.07-6,2.44-8.72-.59-14.11-2.91-5.19-7.69-6-15.31-2.86l-11,4.65-7-13.11-3.75,2.17,8.1,12.52-10.73,5.39s-9.18,3.59-5.22,13.45C661.89,433.21,670.33,431.21,670.33,431.21Z" transform="translate(-30.98 -23.87)"/><path class="cls-15" d="M651.63,375.3h33.2s10.73.31,12.86-11.95c2.34-13.45-7.44-15.3-7.44-15.3s5.9-2.71,4.61-12.88-10.24-11.46-14-11c.61-6,1.88-19.69-12.3-19.83C654.9,304.22,655,318,656,323.44c-4.88.05-19.63,7.37-9.25,23.44-5.64,4.83-8,7.63-7.78,14.59S643.5,375.3,651.63,375.3Z" transform="translate(-30.98 -23.87)"/><polygon class="cls-13" points="653.04 332.79 638.88 342.11 638.5 333.1 647.45 322.55 638.36 329.9 637.18 302.36 636.31 330.08 626.76 322.47 636.22 332.9 635.93 342.18 621.37 331.47 635.83 345.52 635.09 368.87 640.03 368.87 639.03 345.66 653.04 332.79"/><path class="cls-16" d="M230.84,341s-1.75,2.48,1.17,6.17a6.22,6.22,0,0,0,8.08,1.59c.42,2.86,3.93,8.88,9.48,5.48,5.22-3.2,2.71-8.07,1-10,3.26-.92,5.69-8.73-1.79-11.42,1.11-3.22,1.31-4.68-.32-7.58s-4.13-3.24-8.22-1.54l-5.93,2.5-3.77-7-2,1.17,4.35,6.72L227.14,330a5.26,5.26,0,0,0-2.8,7.22A5.68,5.68,0,0,0,230.84,341Z" transform="translate(-30.98 -23.87)"/><path class="cls-17" d="M220.8,311h17.83s5.76.16,6.91-6.42c1.26-7.23-4-8.22-4-8.22s3.17-1.46,2.48-6.92a6.57,6.57,0,0,0-7.5-5.9c.33-3.24,1-10.58-6.61-10.65-7.36-.07-7.31,7.33-6.76,10.25-2.62,0-10.54,4-5,12.59-3,2.59-4.32,4.1-4.18,7.84S216.43,311,220.8,311Z" transform="translate(-30.98 -23.87)"/><polygon class="cls-13" points="207.21 277.1 199.61 282.11 199.4 277.27 204.21 271.6 199.33 275.55 198.69 260.76 198.23 275.64 193.09 271.56 198.18 277.16 198.02 282.14 190.2 276.39 197.97 283.94 197.57 296.48 200.22 296.48 199.69 284.01 207.21 277.1"/></g><polygon class="cls-18" points="418.22 359.12 655.46 509.07 397.29 589.49 326.31 359.12 418.22 359.12"/><polygon class="cls-19" points="398.67 345.33 345.86 345.33 349.86 310.48 394.67 310.48 398.67 345.33"/><rect class="cls-20" x="326.31" y="345.33" width="91.91" height="13.79"/><path class="cls-21" d="M537.62,339.33H268.87A20.35,20.35,0,0,1,248.52,319V132.85a20.35,20.35,0,0,1,20.35-20.35H537.62A20.35,20.35,0,0,1,558,132.85V319A20.35,20.35,0,0,1,537.62,339.33Z" transform="translate(-30.98 -23.87)"/><path class="cls-22" d="M525.42,303.71H281.08a16.47,16.47,0,0,1-16.47-16.47V145.93a16.47,16.47,0,0,1,16.47-16.47H525.42a16.47,16.47,0,0,1,16.47,16.47V287.25A16.48,16.48,0,0,1,525.42,303.71Z" transform="translate(-30.98 -23.87)"/><circle class="cls-23" cx="372.27" cy="298.92" r="9.36"/><path class="cls-24" d="M403.25,166.14A51.77,51.77,0,1,0,455,217.91,51.83,51.83,0,0,0,403.25,166.14ZM429,185.05,403.2,210.84l-25.75-25.75a41.65,41.65,0,0,1,51.54,0Zm-67.52,32.87a41.59,41.59,0,0,1,8.91-25.75l25.74,25.74-25.75,25.75A41.64,41.64,0,0,1,361.47,217.92Zm16,32.82L403.2,225,429,250.78a41.65,41.65,0,0,1-51.54,0Zm58.62-7-25.8-25.8,25.79-25.79a41.67,41.67,0,0,1,0,51.59Z" transform="translate(-30.98 -23.87)"/><path class="cls-25" d="M494,354.71l-2.34,1s-.82,1.47-.48,4.65,1.91,4.39,2.26,5.56a32.11,32.11,0,0,1,.13,5.64h6.2l.26-6.27a16.12,16.12,0,0,0,1.86-3.16c.46-1.29,1.39-3.41,1.07-4.42S498.51,352.81,494,354.71Z" transform="translate(-30.98 -23.87)"/><path class="cls-26" d="M496.86,351.46s1-1.92,1.79-.89,1.29,1.56,2.2,1.34,2.7,0,2.06,1.75,0,1.93.22,2.41c.15.3,1.25,1.3.51,2.58s-1.76.8-1.58,2a2.57,2.57,0,0,1-.91,2.63,1,1,0,0,0-.37,1.38,1,1,0,0,1-1.35,1.13,3.68,3.68,0,0,0-2.94-.17c-.87.42-4.45.66-3.69-1s-.27-1.87-.92-2.56a3.28,3.28,0,0,1-.83-3.07,4.09,4.09,0,0,0-.3-3.33c-.8-1.06.58-3.93,1.49-3.83S494.41,349.16,496.86,351.46Z" transform="translate(-30.98 -23.87)"/><path class="cls-27" d="M499.75,464.09s-4.26-.59-3.75,3.32c1.26,3.39,2.09,4.48,2.31,6.13a5.08,5.08,0,0,0,5.31,3.95c3.24-.08,4.26-3,2.61-6.49S503.69,464.15,499.75,464.09Z" transform="translate(-30.98 -23.87)"/><path class="cls-28" d="M496,466.54a21.92,21.92,0,0,0,1.53,3.72,15.73,15.73,0,0,1,1.54,3.23,4.23,4.23,0,0,0,5.07,3.09c2.28-.48,3.05-1.8,2.89-2.83a4.21,4.21,0,0,1,0,2.41,3.77,3.77,0,0,1-2.76,1.49c-2.44.43-4.31.1-5.81-3.29a22.18,22.18,0,0,0-1-3.34C497,470.21,495.65,467.64,496,466.54Z" transform="translate(-30.98 -23.87)"/><path class="cls-27" d="M485.37,464.49s-5.08.68-3.89,4.24c1.27,3.07,2.24,4.29,2.73,5.87a5,5,0,0,0,5.9,2.86c3.17-.71,3.67-3.74,1.45-6.88S489.25,463.78,485.37,464.49Z" transform="translate(-30.98 -23.87)"/><path class="cls-28" d="M481.46,466.82s-.41,1.56,1.62,4.66c.64.9,1.25,2,1.83,2.93s1.91,3.27,5.52,2.06c2.16-.92,2.69-2.37,2.35-3.34a3.71,3.71,0,0,1,.41,2.2,4.07,4.07,0,0,1-2.46,2.18c-2.32.9-4.22.94-6.28-2.11a22.11,22.11,0,0,0-1.6-3.08C482.34,471.59,480.71,467.93,481.46,466.82Z" transform="translate(-30.98 -23.87)"/><path class="cls-29" d="M484.85,407.55s-2.6,6.67-1.91,18.27,3.89,48.64,3.89,48.64h5l3.82-51,5.85,51h4.6s4.3-61.93-.55-66.9Z" transform="translate(-30.98 -23.87)"/><path class="cls-25" d="M494.07,360.36s-2,1.42-3.44.94a7.87,7.87,0,0,0-3.84,0c-1,.15-8.88,1.62-9.39,2.15-.73.75,8.24,5.86,7.87,6.48-2,.7-5.73,5.39-5.73,5.39s-13.46-12.67-9.48-15.49,12.32-3.22,17.44-3.45a3.2,3.2,0,0,0,2.78-1.08c.46-.49,3.7-3,6.68-1,1.8,1.2-1.94,2.83-2.56,2.92s-3,1.19-.9,2.16C494.36,359.61,494.64,360,494.07,360.36Z" transform="translate(-30.98 -23.87)"/><path class="cls-25" d="M499.42,360.36s2,1.42,3.44.94a7.87,7.87,0,0,1,3.84,0c1,.15,8.88,1.62,9.39,2.15.73.75-8.24,5.86-7.87,6.48,2,.7,5.73,5.39,5.73,5.39s13.46-12.67,9.48-15.49-12.32-3.22-17.44-3.45a3.2,3.2,0,0,1-2.78-1.08c-.46-.5-3.7-3-6.68-1-1.8,1.2,1.94,2.83,2.56,2.92s3,1.19.9,2.16C499.14,359.61,498.85,360,499.42,360.36Z" transform="translate(-30.98 -23.87)"/><path class="cls-30" d="M511.58,383.4c1.56-3.56,6.83-8.82,6.83-8.82l-6.14-8c-4.27,1.42-7.07,4-10.33,2a13.51,13.51,0,0,0-9.8,0c-3.26,1.94-6.06-.6-10.33-2l-6.14,8s5.27,5.25,6.83,8.82a17,17,0,0,1,.38,5.36c-.12,2.27-2.63,23.8.79,25.16,1.84.73,7.84,1.1,13.38,1.21,5.53-.1,11.53-.48,13.38-1.21,3.41-1.35.9-22.88.79-25.16A16.19,16.19,0,0,1,511.58,383.4Z" transform="translate(-30.98 -23.87)"/></g></svg>