<svg id="图层_1" data-name="图层 1" xmlns="http://www.w3.org/2000/svg" xmlns:xlink="http://www.w3.org/1999/xlink" viewBox="0 0 500 300"><defs><style>.cls-1{fill:url(#未命名的渐变_50);}.cls-2{fill:url(#未命名的渐变_35);}.cls-3{fill:url(#未命名的渐变_35-2);}.cls-4{fill:url(#未命名的渐变_35-3);}.cls-5{fill:url(#未命名的渐变_73);}.cls-6{fill:#c7cce0;}.cls-7{fill:url(#未命名的渐变_77);}.cls-8,.cls-9{opacity:0.4;}.cls-8{fill:url(#未命名的渐变_66);}.cls-9{fill:url(#未命名的渐变_71);}.cls-10{fill:#e2e4ed;}.cls-11{fill:url(#未命名的渐变_74);}</style><linearGradient id="未命名的渐变_50" x1="250" y1="284.22" x2="250" y2="191.22" gradientUnits="userSpaceOnUse"><stop offset="0" stop-color="#fff9ef" stop-opacity="0"/><stop offset="0.17" stop-color="#fef8ef" stop-opacity="0.02"/><stop offset="0.32" stop-color="#fbf5ee" stop-opacity="0.06"/><stop offset="0.46" stop-color="#f5f1ec" stop-opacity="0.14"/><stop offset="0.6" stop-color="#edebea" stop-opacity="0.26"/><stop offset="0.74" stop-color="#e3e2e7" stop-opacity="0.4"/><stop offset="0.87" stop-color="#d6d8e4" stop-opacity="0.58"/><stop offset="0.99" stop-color="#c8cde0" stop-opacity="0.79"/><stop offset="1" stop-color="#c7cce0" stop-opacity="0.8"/></linearGradient><linearGradient id="未命名的渐变_35" x1="877.27" y1="-627.54" x2="933.04" y2="-683.32" gradientTransform="translate(-831.65 780.65)" xlink:href="#未命名的渐变_50"/><linearGradient id="未命名的渐变_35-2" x1="1155.87" y1="-822.7" x2="1211.64" y2="-878.48" gradientTransform="translate(-775.25 1034.81)" xlink:href="#未命名的渐变_50"/><linearGradient id="未命名的渐变_35-3" x1="1077.38" y1="-926.65" x2="1133.15" y2="-982.42" gradientTransform="translate(-678.76 1009.76)" xlink:href="#未命名的渐变_50"/><linearGradient id="未命名的渐变_73" x1="205.79" y1="65.14" x2="294.4" y2="218.61" gradientUnits="userSpaceOnUse"><stop offset="0" stop-color="#fff"/><stop offset="0.3" stop-color="#f5f6f9"/><stop offset="1" stop-color="#e2e4ed"/></linearGradient><linearGradient id="未命名的渐变_77" x1="250" y1="76.27" x2="250" y2="207.36" gradientUnits="userSpaceOnUse"><stop offset="0" stop-color="#fff"/><stop offset="0" stop-color="#ffe9c5"/><stop offset="0" stop-color="#ffe9c4"/><stop offset="0" stop-color="#ffe4b9"/><stop offset="0" stop-color="#ffe2b2"/><stop offset="0" stop-color="#ffe1b0"/><stop offset="0" stop-color="#fae2ba" stop-opacity="0.92"/><stop offset="0" stop-color="#f4e2c8" stop-opacity="0.8"/><stop offset="0" stop-color="#eee3d3" stop-opacity="0.71"/><stop offset="0" stop-color="#eae3dd" stop-opacity="0.63"/><stop offset="0" stop-color="#e6e4e4" stop-opacity="0.57"/><stop offset="0" stop-color="#e4e4e9" stop-opacity="0.53"/><stop offset="0" stop-color="#e2e4ec" stop-opacity="0.51"/><stop offset="0" stop-color="#e2e4ed" stop-opacity="0.5"/><stop offset="0.02" stop-color="#e0e2ec" stop-opacity="0.54"/><stop offset="0.12" stop-color="#d8dbe8" stop-opacity="0.68"/><stop offset="0.22" stop-color="#d2d6e5" stop-opacity="0.8"/><stop offset="0.34" stop-color="#cdd1e3" stop-opacity="0.89"/><stop offset="0.48" stop-color="#cacee1" stop-opacity="0.95"/><stop offset="0.65" stop-color="#c8cde0" stop-opacity="0.99"/><stop offset="1" stop-color="#c7cce0"/></linearGradient><linearGradient id="未命名的渐变_66" x1="213.5" y1="189.5" x2="286.5" y2="189.5" gradientUnits="userSpaceOnUse"><stop offset="0" stop-color="#fff"/><stop offset="0" stop-color="#ffe9c5"/><stop offset="0" stop-color="#ffe9c4"/><stop offset="0" stop-color="#ffe4b9"/><stop offset="0" stop-color="#ffe2b2"/><stop offset="0" stop-color="#ffe1b0"/><stop offset="0" stop-color="#ffe2b3" stop-opacity="0.96"/><stop offset="0" stop-color="#ffe7c1" stop-opacity="0.78"/><stop offset="0" stop-color="#ffedce" stop-opacity="0.61"/><stop offset="0" stop-color="#fff1da" stop-opacity="0.47"/><stop offset="0" stop-color="#fff5e4" stop-opacity="0.34"/><stop offset="0" stop-color="#fff8ed" stop-opacity="0.23"/><stop offset="0" stop-color="#fffbf3" stop-opacity="0.15"/><stop offset="0" stop-color="#fffdf9" stop-opacity="0.08"/><stop offset="0" stop-color="#fffefc" stop-opacity="0.03"/><stop offset="0" stop-color="#fffffe" stop-opacity="0.01"/><stop offset="0" stop-color="#fff" stop-opacity="0"/><stop offset="0.09" stop-color="#fff" stop-opacity="0.04"/><stop offset="0.23" stop-color="#fff" stop-opacity="0.14"/><stop offset="0.41" stop-color="#fff" stop-opacity="0.31"/><stop offset="0.63" stop-color="#fff" stop-opacity="0.55"/><stop offset="0.88" stop-color="#fff" stop-opacity="0.84"/><stop offset="1" stop-color="#fff"/></linearGradient><linearGradient id="未命名的渐变_71" x1="218" y1="102" x2="282" y2="102" gradientUnits="userSpaceOnUse"><stop offset="0" stop-color="#fff"/><stop offset="0" stop-color="#ffe9c5"/><stop offset="0" stop-color="#ffe9c4"/><stop offset="0" stop-color="#ffe4b9"/><stop offset="0" stop-color="#ffe2b2"/><stop offset="0" stop-color="#ffe1b0"/><stop offset="0" stop-color="#ffe2b3" stop-opacity="0.96"/><stop offset="0" stop-color="#ffe7c1" stop-opacity="0.78"/><stop offset="0" stop-color="#ffedce" stop-opacity="0.61"/><stop offset="0" stop-color="#fff1da" stop-opacity="0.47"/><stop offset="0" stop-color="#fff5e4" stop-opacity="0.34"/><stop offset="0" stop-color="#fff8ed" stop-opacity="0.23"/><stop offset="0" stop-color="#fffbf3" stop-opacity="0.15"/><stop offset="0" stop-color="#fffdf9" stop-opacity="0.08"/><stop offset="0" stop-color="#fffefc" stop-opacity="0.03"/><stop offset="0" stop-color="#fffffe" stop-opacity="0.01"/><stop offset="0" stop-color="#fff" stop-opacity="0"/><stop offset="0.04" stop-color="#fff" stop-opacity="0.05"/><stop offset="0.32" stop-color="#fff" stop-opacity="0.38"/><stop offset="0.56" stop-color="#fff" stop-opacity="0.65"/><stop offset="0.76" stop-color="#fff" stop-opacity="0.84"/><stop offset="0.91" stop-color="#fff" stop-opacity="0.96"/><stop offset="1" stop-color="#fff"/></linearGradient><linearGradient id="未命名的渐变_74" x1="196" y1="131.5" x2="196" y2="127.5" gradientUnits="userSpaceOnUse"><stop offset="0" stop-color="#fff"/><stop offset="0" stop-color="#fff3e0"/><stop offset="0.31" stop-color="#ffecce"/><stop offset="0.63" stop-color="#ffe8c3"/><stop offset="1" stop-color="#ffe7c0"/></linearGradient></defs><title>加载中缺省页</title><ellipse class="cls-1" cx="250" cy="237.72" rx="146" ry="46.5"/><rect class="cls-2" x="59.5" y="75.22" width="28" height="100" rx="14" ry="14" transform="translate(110.07 -15.3) rotate(45)"/><rect class="cls-3" x="394.5" y="134.22" width="28" height="100" rx="14" ry="14" transform="translate(249.91 -234.9) rotate(45)"/><rect class="cls-4" x="412.5" y="5.22" width="28" height="100" rx="14" ry="14" transform="translate(163.97 -285.41) rotate(45)"/><path class="cls-5" d="M261.23,136.33C276,123.72,300,100.65,300,84.2a37.91,37.91,0,0,0-4.89-18.56l-90.24,0A37.9,37.9,0,0,0,200,84.2c0,16.46,24,39.53,38.77,52.13a6.83,6.83,0,0,1,0,10.71C224,159.64,200,182.71,200,199.17a37.8,37.8,0,0,0,4.35,17.55c4.06,11.83,82.36,11.61,90.68,1h.08A37.91,37.91,0,0,0,300,199.17c0-16.46-24-39.53-38.77-52.13A6.83,6.83,0,0,1,261.23,136.33Z"/><path class="cls-6" d="M226,206.58a11,11,0,0,0-1.67.45c-10.48,3.66-20.14-1.32-20.14,8.71,0,13.5,91.59,12.83,91.59.1,0-10.21-9.8-4.94-20.41-9-6.33-2.42-18.6-3.93-23.33-4.44a13.16,13.16,0,0,0-3.76.14Z"/><path class="cls-7" d="M252,148.49c.13-3.55,3.72-7.45,6.66-9.94,12.76-10.79,35-31.21,35-46a33.17,33.17,0,0,0-4.28-16.24l-79,0a33.17,33.17,0,0,0-4.26,16.21c0,14.83,22.29,35.79,35.05,46.58,2.91,2.46,5.87,5.79,5.4,9.3l3.24,59Z"/><path class="cls-6" d="M289.5,76.5c0,1.93-13.8,4.5-37,4.5s-42-2.57-42-4.5,18.8-3.5,42-3.5S289.5,74.57,289.5,76.5Z"/><circle class="cls-8" cx="250" cy="189.5" r="36.5"/><circle class="cls-9" cx="250" cy="102" r="32"/><path class="cls-10" d="M157,109.5c0-.54-1-1-2.47-1.26a1.56,1.56,0,0,1-1.27-1.27c-.25-1.48-.72-2.47-1.26-2.47s-1,1-1.26,2.47a1.56,1.56,0,0,1-1.27,1.27c-1.48.25-2.47.72-2.47,1.26s1,1,2.47,1.26a1.56,1.56,0,0,1,1.27,1.27c.25,1.48.72,2.47,1.26,2.47s1-1,1.26-2.47a1.56,1.56,0,0,1,1.27-1.27C156,110.5,157,110,157,109.5Z"/><path class="cls-11" d="M198,129.5c0-.21-.4-.4-1-.5a.62.62,0,0,1-.51-.51c-.1-.59-.29-1-.5-1s-.4.4-.5,1a.62.62,0,0,1-.51.51c-.59.1-1,.29-1,.5s.4.4,1,.5a.62.62,0,0,1,.51.51c.1.59.29,1,.5,1s.4-.4.5-1A.62.62,0,0,1,197,130C197.6,129.9,198,129.71,198,129.5Z"/><path class="cls-10" d="M192.79,65.58c0-1.15-2.13-2.15-5.3-2.69a3.33,3.33,0,0,1-2.71-2.71c-.54-3.17-1.54-5.3-2.69-5.3s-2.15,2.13-2.69,5.3a3.33,3.33,0,0,1-2.71,2.71c-3.17.54-5.3,1.54-5.3,2.69s2.13,2.15,5.3,2.69A3.33,3.33,0,0,1,179.39,71c.54,3.17,1.54,5.3,2.69,5.3s2.15-2.13,2.69-5.3a3.33,3.33,0,0,1,2.71-2.71C190.66,67.73,192.79,66.73,192.79,65.58Z"/><path class="cls-10" d="M301,152c0-.38-.7-.7-1.73-.88a1.09,1.09,0,0,1-.89-.89c-.18-1-.5-1.73-.88-1.73s-.7.7-.88,1.73a1.09,1.09,0,0,1-.89.89c-1,.18-1.73.5-1.73.88s.7.7,1.73.88a1.09,1.09,0,0,1,.89.89c.18,1,.5,1.73.88,1.73s.7-.7.88-1.73a1.09,1.09,0,0,1,.89-.89C300.3,152.7,301,152.38,301,152Z"/></svg>