<?xml version="1.0" standalone="no"?><!DOCTYPE svg PUBLIC "-//W3C//DTD SVG 1.1//EN" "http://www.w3.org/Graphics/SVG/1.1/DTD/svg11.dtd"><svg t="1615994656572" class="icon" viewBox="0 0 1024 1024" version="1.1" xmlns="http://www.w3.org/2000/svg" p-id="8691" xmlns:xlink="http://www.w3.org/1999/xlink" width="128" height="128"><defs><style type="text/css"></style></defs><path d="M514 114.5c-219.8 0-398.7 178.8-398.7 398.7 0 219.8 178.8 398.7 398.7 398.7S912.7 733 912.7 513.2c0-219.8-178.9-398.7-398.7-398.7z m0 754.6c-196.3 0-355.9-159.7-355.9-356S317.8 157.2 514 157.2s355.9 159.7 355.9 355.9c0 196.4-159.6 356-355.9 356z" p-id="8692" fill="#707070"></path><path d="M514 501.5c85.7 0 155.1-69.4 155.1-155.1 0-85.7-69.4-155.1-155.1-155.1-85.7 0-155.1 69.4-155.1 155.1 0 85.7 69.4 155.1 155.1 155.1z m0-267.5c62 0 112.4 50.4 112.4 112.4S576 458.8 514 458.8s-112.4-50.4-112.4-112.4S452 234 514 234z" p-id="8693" fill="#707070"></path><path d="M626.9 497.9c-31.5 23.5-70.5 37.4-112.9 37.4-42.3 0-81.4-13.9-112.9-37.4-70.2 30.7-125.5 89-152.1 161.2 51.6 93.3 151 156.6 264.9 156.6s213.3-63.3 264.9-156.6c-26.5-72.2-81.8-130.5-151.9-161.2zM514 773c-87.8 0-169.3-44.5-217.2-117.5 21.4-45.8 57.1-84 101.3-108.5 35.1 20.4 74.7 31 115.9 31s80.8-10.7 115.9-31c44.2 24.5 79.9 62.8 101.3 108.5C683.3 728.5 601.8 773 514 773z" p-id="8694" fill="#707070"></path></svg>