<?xml version="1.0" standalone="no"?><!DOCTYPE svg PUBLIC "-//W3C//DTD SVG 1.1//EN" "http://www.w3.org/Graphics/SVG/1.1/DTD/svg11.dtd"><svg t="1615993564932" class="icon" viewBox="0 0 1024 1024" version="1.1" xmlns="http://www.w3.org/2000/svg" p-id="2199" xmlns:xlink="http://www.w3.org/1999/xlink" width="128" height="128"><defs><style type="text/css"></style></defs><path d="M514 912c-219.9 0-398.8-178.9-398.8-398.8S294.1 114.3 514 114.3s398.9 178.9 398.9 398.9C912.8 733.1 733.9 912 514 912z m0-701.5c-166.9 0-302.7 135.8-302.7 302.7S347.1 815.9 514 815.9s302.7-135.8 302.7-302.7S680.9 210.5 514 210.5z" fill="#BDD2EF" p-id="2200"></path><path d="M761.5 460c-30.5-1.1-59.7-17.4-76.1-45.8-16.4-28.3-15.9-61.8-1.6-88.7-26.3-23.8-57.6-42.1-92.1-53.2-16.2 25.8-44.9 43-77.7 43s-61.4-17.2-77.7-43c-34.5 11.1-65.8 29.4-92.1 53.2 14.2 27 14.7 60.4-1.6 88.7-16.4 28.4-45.6 44.6-76.1 45.8-3.7 17.1-5.6 34.9-5.6 53.2 0 18.2 2 36 5.6 53.2 30.5 1.2 59.7 17.4 76.1 45.8 16.4 28.3 15.9 61.8 1.6 88.7 26.3 23.8 57.5 42.1 92.1 53.2 16.2-25.8 44.9-43 77.7-43 32.7 0 61.4 17.2 77.7 43 34.5-11.1 65.8-29.4 92.1-53.2-14.2-27-14.7-60.4 1.6-88.7 16.4-28.4 45.6-44.6 76.1-45.8 3.7-17.1 5.6-34.9 5.6-53.2 0-18.3-2-36.1-5.6-53.2zM514 611.6c-54.3 0-98.4-44-98.4-98.4s44-98.4 98.4-98.4 98.4 44 98.4 98.4-44.1 98.4-98.4 98.4z" fill="#2867CE" p-id="2201"></path></svg>