<?xml version="1.0" encoding="utf-8"?>
<!-- Generator: Adobe Illustrator 25.2.1, SVG Export Plug-In . SVG Version: 6.00 Build 0)  -->
<svg version="1.1" id="图层_1" xmlns="http://www.w3.org/2000/svg" xmlns:xlink="http://www.w3.org/1999/xlink" x="0px" y="0px"
	 viewBox="0 0 200 200" style="enable-background:new 0 0 200 200;" xml:space="preserve">
<style type="text/css">
	.st0{fill:#5E7BF7;}
	.st1{fill:#FFFFFF;}
</style>
<path class="st0" d="M0,100c0,55.2,44.8,100,100,100s100-44.8,100-100S155.2,0,100,0S0,44.8,0,100z"/>
<path class="st1" d="M148.3,156.6H52.3c-1.1,0-2-0.9-2-2V45.8c0-1.1,0.9-2,2-2h95.9c1.1,0,2,0.9,2,2v108.8
	C150.2,155.7,149.3,156.6,148.3,156.6z"/>
<path class="st0" d="M125,65.9H74.3c-0.9,0-1.7-0.8-1.7-1.7c0-0.9,0.8-1.7,1.7-1.7H125c0.9,0,1.7,0.8,1.7,1.7
	C126.7,65.2,125.9,65.9,125,65.9z M125.8,82.1H68.5c-0.9,0-1.7-0.8-1.7-1.7s0.8-1.7,1.7-1.7h57.4c0.9,0,1.7,0.8,1.7,1.7
	S126.8,82.1,125.8,82.1z M125.8,98.1H68.5c-0.9,0-1.7-0.8-1.7-1.7s0.8-1.7,1.7-1.7h57.4c0.9,0,1.7,0.8,1.7,1.7
	C127.5,97.4,126.8,98.1,125.8,98.1z M125.8,114.3H68.5c-0.9,0-1.7-0.8-1.7-1.7c0-0.9,0.8-1.7,1.7-1.7h57.4c0.9,0,1.7,0.8,1.7,1.7
	C127.5,113.5,126.8,114.3,125.8,114.3z M112.2,130.4H68.5c-0.9,0-1.7-0.8-1.7-1.7s0.8-1.7,1.7-1.7h43.8c0.9,0,1.7,0.8,1.7,1.7
	C113.9,129.6,113.2,130.4,112.2,130.4L112.2,130.4z M112.2,146.5H68.5c-0.9,0-1.7-0.8-1.7-1.7c0-0.9,0.8-1.7,1.7-1.7h43.8
	c0.9,0,1.7,0.8,1.7,1.7C113.9,145.7,113.2,146.5,112.2,146.5L112.2,146.5z"/>
</svg>
