<?xml version="1.0" standalone="no"?><!DOCTYPE svg PUBLIC "-//W3C//DTD SVG 1.1//EN" "http://www.w3.org/Graphics/SVG/1.1/DTD/svg11.dtd"><svg t="1616081643542" class="icon" viewBox="0 0 1024 1024" version="1.1" xmlns="http://www.w3.org/2000/svg" p-id="8097" xmlns:xlink="http://www.w3.org/1999/xlink" width="128" height="128"><defs><style type="text/css"></style></defs><path d="M512 512m-512 0a512 512 0 1 0 1024 0 512 512 0 1 0-1024 0Z" fill="#585061" p-id="8098"></path><path d="M316.999 274.405a13.362 13.362 0 0 0-11.175-2.723c-60.469 13.912-103.37 67.644-103.542 129.669v177.71c58.48-43.698 136.625-50.629 201.891-17.908 65.265 32.729 106.448 99.486 106.421 172.494h-0.174a193.13 193.13 0 0 1-7.112 51.82h53.708a13.173 13.173 0 0 0 11.519-6.538 13.182 13.182 0 0 0 0.036-13.251c-36.607-63.302-25.688-143.357 26.521-194.538 52.228-51.184 132.481-60.506 195.034-22.648a13.235 13.235 0 0 0 13.37 0.199 13.167 13.167 0 0 0 6.675-11.583V401.353c-0.209-59.289-39.54-111.316-96.52-127.695a13.364 13.364 0 0 0-11.817 2.159 13.346 13.346 0 0 0-5.313 10.785v23.111c0 14.477-11.985 32.118-39.906 32.118-27.926 0-39.908-17.64-39.908-32.118v-27.995c0-7.335-5.949-13.273-13.285-13.273H415.018c-7.335 0-13.272 5.938-13.272 13.273v27.995c0 14.477-11.999 32.118-39.908 32.118-27.92 0-39.917-17.64-39.917-32.118v-24.927a13.36 13.36 0 0 0-4.922-10.381zM711.86 381.919c9.764 0.037 17.679 7.95 17.727 17.716v44.285c-0.048 9.765-7.963 17.677-17.727 17.727H300.77c-9.778-0.05-17.678-7.96-17.728-17.727v-44.285c0.049-9.766 7.949-17.679 17.728-17.716h411.09z" fill="#FFFFFF" p-id="8099"></path><path d="M684.969 307.822V243.6c0-9.593-6.687-21.405-26.558-21.405-19.864 0-26.55 11.726-26.55 21.405v64.222c0 9.594 7.962 21.419 26.55 21.419 18.583 0 26.558-11.385 26.558-21.419zM389.66 307.822V243.6c0-9.593-6.673-21.405-26.548-21.405-19.86 0-26.889 11.812-26.889 21.405v64.222c0 9.594 7.961 21.419 26.546 21.419 18.586 0 26.891-11.385 26.891-21.419z" fill="#FFFFFF" p-id="8100"></path><path d="M829.359 683.717c0-67.633-54.837-122.469-122.471-122.469-67.642 0-122.466 54.836-122.466 122.469 0 67.631 54.824 122.47 122.466 122.47 67.633 0 122.471-54.839 122.471-122.47z m-150.732 50.186l-43.847-43.846a19.946 19.946 0 0 1-6.071-19.677 19.964 19.964 0 0 1 14.563-14.575c7.178-1.766 14.759 0.563 19.68 6.075l29.812 29.797 58.146-58.148a19.946 19.946 0 0 1 19.679-6.062 19.954 19.954 0 0 1 8.501 34.24v-0.086l-72.28 72.28c-7.797 7.769-20.394 7.769-28.183 0.002z" fill="#FFFFFF" p-id="8101"></path><path d="M503.395 785.466c22.182-79.48-8.675-164.253-76.724-210.916-68.061-46.644-158.263-44.832-224.386 4.514v73.482c0.235 73.338 59.657 132.734 132.995 132.92h168.115z" fill="#FFFFFF" opacity=".4" p-id="8102"></path></svg>