<?xml version="1.0" standalone="no"?><!DOCTYPE svg PUBLIC "-//W3C//DTD SVG 1.1//EN" "http://www.w3.org/Graphics/SVG/1.1/DTD/svg11.dtd"><svg t="1616081599328" class="icon" viewBox="0 0 1024 1024" version="1.1" xmlns="http://www.w3.org/2000/svg" p-id="7074" xmlns:xlink="http://www.w3.org/1999/xlink" width="128" height="128"><defs><style type="text/css"></style></defs><path d="M512 0C229.225412 0 0 229.240471 0 512c0 282.774588 229.225412 512 512 512s512-229.225412 512-512C1024 229.240471 794.774588 0 512 0z m-6.881882 880.067765c-26.262588 14.667294-47.751529 22.016-64.406589 22.016-14.607059 0-26.187294-4.502588-34.725647-13.462589-8.553412-8.96-12.815059-21.398588-12.815058-37.300705 0-50.944 31.262118-175.495529 93.81647-373.609412 2.921412-9.381647 4.367059-17.739294 4.367059-25.072941 0-8.131765-3.749647-12.227765-11.248941-12.227765-8.342588 0-17.814588 3.267765-28.461177 9.788235-10.631529 6.520471-34.304 27.316706-70.987294 62.373647l-27.51247-20.781176c41.637647-44.845176 79.646118-76.754824 113.995294-95.713883 34.364235-18.944 63.608471-28.431059 87.762823-28.431058 13.342118 0 23.536941 2.861176 30.614588 8.553411 7.077647 5.722353 10.631529 13.462588 10.63153 23.250824 0 11.821176-13.522824 61.967059-40.553412 150.422588-44.077176 144.715294-66.108235 231.951059-66.108235 261.722353 0 5.692235 1.445647 10.496 4.367059 14.351059 2.921412 3.885176 6.053647 5.797647 9.396706 5.797647 13.342118 0 47.525647-25.253647 102.565647-75.806118l24.395294 23.235765c-57.133176 52.570353-98.831059 86.211765-125.093647 100.894118z m145.498353-619.474824c-12.724706 13.658353-27.000471 20.48-42.842353 20.48-12.498824 0-22.934588-4.291765-31.277177-12.845176-8.342588-8.553412-12.498824-19.757176-12.498823-33.626353 0-18.341647 6.023529-33.942588 18.130823-46.787765 12.092235-12.830118 26.473412-19.245176 43.158588-19.245176 12.920471 0 23.552 4.171294 31.894589 12.528941 8.342588 8.357647 12.498824 19.064471 12.498823 32.090353 0 17.950118-6.354824 33.731765-19.06447 47.405176z" fill="#0084FF" p-id="7075"></path></svg>