<?xml version="1.0" standalone="no"?><!DOCTYPE svg PUBLIC "-//W3C//DTD SVG 1.1//EN" "http://www.w3.org/Graphics/SVG/1.1/DTD/svg11.dtd"><svg t="1615994892346" class="icon" viewBox="0 0 1024 1024" version="1.1" xmlns="http://www.w3.org/2000/svg" p-id="1663" xmlns:xlink="http://www.w3.org/1999/xlink" width="128" height="128"><defs><style type="text/css"></style></defs><path d="M788.6 918.1H391.4c-60.1 0-109.1-48.9-109.1-109.1V211.1c0-57.4 46.7-104.2 104.2-104.2h18.1c46.3 0 87.7 29.4 103 73.1l53.2 152.3c6.9 19.7 25.5 32.9 46.3 32.9H850c60.1 0 109.1 48.9 109.1 109.1 0 6.6-0.6 13.2-1.8 19.7l-61.4 334.7c-9.6 51.8-54.7 89.4-107.3 89.4zM386.5 167c-24.4 0-44.2 19.8-44.2 44.2V809c0 27.1 22 49.1 49.1 49.1h397.2c23.7 0 44-16.9 48.3-40.2l61.4-334.7c0.5-2.9 0.8-5.9 0.8-8.8 0-27.1-22-49.1-49.1-49.1H607c-46.3 0-87.7-29.4-103-73.1l-53.2-152.3c-6.9-19.7-25.5-32.9-46.3-32.9h-18z" fill="#707070" p-id="1664" data-spm-anchor-id="a313x.7781069.0.i4" class="selected"></path><path d="M63.3 431.2h60v477.9h-60z" fill="#F0C900" p-id="1665"></path></svg>