<?xml version="1.0" standalone="no"?><!DOCTYPE svg PUBLIC "-//W3C//DTD SVG 1.1//EN" "http://www.w3.org/Graphics/SVG/1.1/DTD/svg11.dtd"><svg t="1616081622945" class="icon" viewBox="0 0 1024 1024" version="1.1" xmlns="http://www.w3.org/2000/svg" p-id="7508" xmlns:xlink="http://www.w3.org/1999/xlink" width="128" height="128"><defs><style type="text/css"></style></defs><path d="M512 512m-512 0a512 512 0 1 0 1024 0 512 512 0 1 0-1024 0Z" fill="#F9A238" p-id="7509"></path><path d="M804.79 336.417a191.612 191.612 0 0 1-56.335 33.543 20.242 20.242 0 0 1 3.821 0.072 20.302 20.302 0 0 1 13.288 7.84 20.123 20.123 0 0 1 3.883 14.893 20.044 20.044 0 0 1-7.806 13.271l-128.609 97.195 128.521 128.522c7.479 7.917 7.32 20.347-0.347 28.074-7.688 7.724-20.116 7.953-28.079 0.526L600.525 527.754l-57.199 43.148c-15.328 10.737-35.733 10.737-51.063 0l-56.774-43.075-114.816 114.742c97.123-21.698 194.708 34.527 224.609 129.445h136.185c77.97-0.095 141.187-63.222 141.371-141.197V405.101a139.845 139.845 0 0 0-18.048-68.684z" fill="#FFFFFF" p-id="7510"></path><path d="M403.064 503.159L274.457 406.04a19.912 19.912 0 0 1-7.827-13.282c-1.475-10.936 6.099-21.055 17.021-22.724a20.002 20.002 0 0 1 14.817 4.007l218.39 164.695h1.107c0.45 0.073 0.913 0.073 1.362 0L737.049 374.3c-94.861 29.422-196.574-18.422-234.313-110.398H341.02c-77.971 0.086-141.184 63.226-141.369 141.199v225.716a139.773 139.773 0 0 0 19.578 71.494 192.304 192.304 0 0 1 54.801-42.724c-7.426-7.915-7.196-20.282 0.513-27.918l128.521-128.51z" fill="#FFFFFF" p-id="7511"></path><path d="M545.282 772.015c-29.901-94.918-127.485-151.141-224.61-129.445l-17.703 17.701c-7.876 7.865-20.637 7.865-28.513 0l-0.511-0.594a192.208 192.208 0 0 0-54.716 42.549c25.373 43.2 71.701 69.744 121.791 69.79l204.262-0.001z" fill="#FFFFFF" opacity=".4" p-id="7512"></path><path d="M737.813 374.04a19.926 19.926 0 0 1 10.644-3.749 191.405 191.405 0 0 0 56.333-33.533c-24.857-44.842-72.05-72.723-123.322-72.857H502.734c29.621 71.869 99.716 118.747 177.455 118.648a191.46 191.46 0 0 0 57.624-8.509z" fill="#FFFFFF" p-id="7513"></path></svg>