<?xml version="1.0" encoding="utf-8"?>
<!-- Generator: Adobe Illustrator 24.3.0, SVG Export Plug-In . SVG Version: 6.00 Build 0)  -->
<svg version="1.1" id="图层_1" xmlns="http://www.w3.org/2000/svg" xmlns:xlink="http://www.w3.org/1999/xlink" x="0px" y="0px"
	 viewBox="0 0 115.2 115.2" style="enable-background:new 0 0 115.2 115.2;" xml:space="preserve">
<style type="text/css">
	.st0{fill:#FFB36E;}
	.st1{fill:#FFFFFF;}
</style>
<path class="st0" d="M0,57.6c0,31.8,25.8,57.6,57.6,57.6s57.6-25.8,57.6-57.6S89.4,0,57.6,0S0,25.8,0,57.6z"/>
<path class="st1" d="M32.4,21c-2.2-0.1-4.1,1.6-4.2,3.8s2.4,7.6,3.7,7.6s4.3-5,4.4-7.2C36.4,23,34.6,21.1,32.4,21z M22.1,31.9
	c-2.2,0.4-3.6,2.5-3.3,4.7s2.5,3.6,4.7,3.3s6.8-4,6.6-5.2C29.9,33.3,24.3,31.5,22.1,31.9z M73.5,29.5H41.7
	c-6.8,0-12.3,5.5-12.3,12.3v31.7c0,6.8,5.5,12.3,12.3,12.3h31.7c6.8,0,12.3-5.5,12.3-12.3V41.7C85.7,34.9,80.3,29.5,73.5,29.5z
	 M65.9,70.5c0,1-0.8,1.7-1.7,1.7H43.9c-1.1,0-1.9-0.8-1.9-1.9v-6c0-3.6,2.9-10.6,6.5-10.6s6.5,7,6.5,10.6v2.4c0-3,2.4-8.5,5.4-8.5
	s5.4,5.5,5.4,8.5L65.9,70.5L65.9,70.5z M69.6,50.4c-2,0-3.7-1.7-3.7-3.7c0-2,1.7-3.7,3.7-3.7s3.7,1.7,3.7,3.7
	C73.2,48.7,71.6,50.4,69.6,50.4z"/>
</svg>
