<?xml version="1.0" standalone="no"?><!DOCTYPE svg PUBLIC "-//W3C//DTD SVG 1.1//EN" "http://www.w3.org/Graphics/SVG/1.1/DTD/svg11.dtd"><svg t="1616081633452" class="icon" viewBox="0 0 1024 1024" version="1.1" xmlns="http://www.w3.org/2000/svg" p-id="7803" xmlns:xlink="http://www.w3.org/1999/xlink" width="128" height="128"><defs><style type="text/css"></style></defs><path d="M512 512m-512 0a512 512 0 1 0 1024 0 512 512 0 1 0-1024 0Z" fill="#0BE272" p-id="7804"></path><path d="M529.956 519.032v199.393c0.095 22.165 18.048 40.116 40.217 40.212 22.021-7.627 65.362-23.041 107.188-41.5 10.825-4.813 21.502-10.743 42.322-22.591a97.389 97.389 0 0 0 33.87-25.99 74.422 74.422 0 0 0 10.913-20.578V292.405c-0.083-22.168-18.041-40.116-40.213-40.213a363.306 363.306 0 0 0-35.212 7.787c21.741 55.613 16.149 118.212-15.101 169.099-31.237 50.895-84.538 84.195-143.984 89.954zM295.619 252.108c-22.169 0.083-40.117 18.045-40.214 40.212v355.573a73.801 73.801 0 0 0 10.926 20.567c9.375 11.179 21.164 20.08 34.454 26.084 21.247 11.848 31.917 17.866 42.334 22.592 41.816 18.459 85.167 33.873 107.18 41.5 22.167-0.098 40.116-18.047 40.212-40.212V518.708c-58.731-6.585-111.096-40.047-141.752-90.578-30.668-50.518-36.15-112.418-14.869-167.556a377.521 377.521 0 0 0-38.271-8.466z" fill="#FFFFFF" p-id="7805"></path><path d="M775.735 682.769a96.998 96.998 0 0 1-33.873 26.004c-20.481 11.423-31.07 17.342-41.569 22.094 11.181 0 44.369 0.683 76.871-1.527a50.862 50.862 0 0 0 29.385-10.063 48.203 48.203 0 0 0 15.485-24.309V339.385c-0.063-20.579-15.668-37.786-36.151-39.875 0.473 2.354 0.729 4.731 0.763 7.119v355.573a74.084 74.084 0 0 1-10.911 20.567zM238.306 299.68c-20.41 2.088-35.993 19.186-36.151 39.706v355.585a48.09 48.09 0 0 0 15.499 24.459 50.745 50.745 0 0 0 29.371 10.079c32.511 2.206 65.691 1.771 76.872 1.525-10.502-4.752-21.074-10.67-41.569-22.094a96.95 96.95 0 0 1-33.858-26 73.79 73.79 0 0 1-10.924-20.566V306.8c0.032-2.388 0.288-4.765 0.76-7.12z" fill="#FFFFFF" p-id="7806"></path><path d="M689.631 259.736c-45.971 12.443-114.127 40.625-147.897 104.631a168.77 168.77 0 0 0-11.863 28.451v126.217c59.631-5.54 113.183-38.81 144.59-89.789 31.408-50.982 37.022-113.775 15.17-169.51zM490.848 518.707h0.084V392.814a169.446 169.446 0 0 0-11.847-28.452c-33.022-62.561-98.968-90.927-144.856-103.792-21.28 55.141-15.801 117.038 14.857 167.556 30.666 50.536 83.032 83.996 141.762 90.581z" fill="#FFFFFF" opacity=".4" p-id="7807"></path></svg>