<?xml version="1.0" standalone="no"?><!DOCTYPE svg PUBLIC "-//W3C//DTD SVG 1.1//EN" "http://www.w3.org/Graphics/SVG/1.1/DTD/svg11.dtd"><svg t="1616080430782" class="icon" viewBox="0 0 1024 1024" version="1.1" xmlns="http://www.w3.org/2000/svg" p-id="6928" xmlns:xlink="http://www.w3.org/1999/xlink" width="128" height="128"><defs><style type="text/css"></style></defs><path d="M421.6832 345.4976c-6.5536 0-13.1072-2.5088-18.1248-7.4752a25.61536 25.61536 0 0 1 0-36.1984l13.568-13.568a25.61536 25.61536 0 0 1 36.1984 0 25.61536 25.61536 0 0 1 0 36.1984l-13.568 13.568c-4.9664 4.9664-11.52 7.4752-18.0736 7.4752z" fill="#44454A" p-id="6929"></path><path d="M852.736 287.9488l-120.2688-120.2688c-17.5616-17.5616-46.08-17.5616-63.6416 0L582.0928 254.464c63.1296 64.4096 149.248 152.4224 210.944 215.4496l59.7504-59.7504c33.6896-33.792 33.6896-88.4736-0.0512-122.2144z" fill="#FFD833" p-id="6930"></path><path d="M866.1504 236.0832l-107.9296-107.9296c-24.1664-24.1664-56.32-37.4784-90.5216-37.4784s-66.3552 13.312-90.5216 37.4784l-0.0512 0.0512-0.0512 0.0512-0.256 0.256-67.7888 67.84c-1.1776 1.1776-2.2016 2.4576-3.1232 3.7888l-39.3216 39.68a25.61536 25.61536 0 0 0 0.1536 36.1984 25.61536 25.61536 0 0 0 36.1984-0.1536l24.3712-24.576c66.3552 67.7376 148.7872 151.9104 213.8624 218.4192l-349.952 349.952a66.6624 66.6624 0 0 1-46.848 19.4048h-0.256l-202.8544-0.8704c-0.8704 0-1.5872-0.3072-2.1504-0.9216a2.9184 2.9184 0 0 1-0.768-2.2016l14.1312-187.136c1.1776-15.7696 8.0384-30.6688 19.2512-41.8816l216.7296-217.344a25.56928 25.56928 0 0 0-0.0512-36.1984 25.56928 25.56928 0 0 0-36.1984 0.0512L135.5264 569.856a117.31456 117.31456 0 0 0-34.048 74.1888l-14.1312 187.136c-1.1264 14.9504 4.0448 29.7984 14.1824 40.8064 10.1376 11.008 24.576 17.3568 39.5264 17.408l202.8544 0.8704h0.4608c30.9248 0 61.184-12.544 83.0464-34.4064l438.7328-438.6816c49.92-49.9712 49.92-131.1744 0-181.0944z m-88.7296 197.376c-65.1776-66.6112-147.712-150.9376-214.016-218.5728l50.0224-50.4832c29.952-29.952 78.6944-29.952 108.5952 0l107.9296 107.9296c29.952 29.952 29.952 78.6432 0 108.5952l-52.5312 52.5312zM902.6048 889.2416H505.088c-14.1312 0-25.6-11.4688-25.6-25.6s11.4688-25.6 25.6-25.6h397.4656c14.1312 0 25.6 11.4688 25.6 25.6s-11.4176 25.6-25.5488 25.6z" fill="#44454A" p-id="6931"></path></svg>